<svg width="24" height="24" viewBox="0 0 24 24" fill="none" xmlns="http://www.w3.org/2000/svg">
<path fill-rule="evenodd" clip-rule="evenodd" d="M18 4C17.4477 4 17 4.44772 17 5V19C17 19.5523 17.4477 20 18 20C18.5523 20 19 19.5523 19 19V5C19 4.44772 18.5523 4 18 4ZM10 20C10.5523 20 11 19.5523 11 19V8C11 7.44772 10.5523 7 10 7C9.44772 7 9 7.44772 9 8V19C9 19.5523 9.44772 20 10 20ZM6 20C6.55228 20 7 19.5523 7 19V12C7 11.4477 6.55228 11 6 11C5.44772 11 5 11.4477 5 12V19C5 19.5523 5.44772 20 6 20ZM13 19V10C13 9.44772 13.4477 9 14 9C14.5523 9 15 9.44772 15 10V19C15 19.5523 14.5523 20 14 20C13.4477 20 13 19.5523 13 19Z" fill="black"/>
</svg>
