<svg width="24" height="24" viewBox="0 0 24 24" fill="none" xmlns="http://www.w3.org/2000/svg">
<path fill-rule="evenodd" clip-rule="evenodd" d="M9 5V7H11C11.5523 7 12 7.44772 12 8C12 8.55229 11.5523 9 11 9H9V11C9 11.5523 8.55228 12 8 12C7.44772 12 7 11.5523 7 11V9H5C4.44772 9 4 8.55229 4 8C4 7.44772 4.44772 7 5 7H7V5C7 4.44772 7.44772 4 8 4C8.55228 4 9 4.44772 9 5ZM12 11C12 10.4477 12.4477 10 13 10H19C19.5523 10 20 10.4477 20 11C20 11.5523 19.5523 12 19 12H13C12.4477 12 12 11.5523 12 11ZM9 14C8.44772 14 8 14.4477 8 15C8 15.5523 8.44771 16 9 16H19C19.5523 16 20 15.5523 20 15C20 14.4477 19.5523 14 19 14H9ZM9 18C8.44772 18 8 18.4477 8 19C8 19.5523 8.44771 20 9 20H19C19.5523 20 20 19.5523 20 19C20 18.4477 19.5523 18 19 18H9Z" fill="black"/>
</svg>
