<svg width="24" height="24" viewBox="0 0 24 24" fill="none" xmlns="http://www.w3.org/2000/svg">
<path fill-rule="evenodd" clip-rule="evenodd" d="M11 13V11H6.28571C5.02335 11 4 10.1046 4 9C4 7.89543 5.02335 7 6.28571 7H11V3C11 2.44772 11.4477 2 12 2C12.5523 2 13 2.44772 13 3V7H17.7143C18.9767 7 20 7.89543 20 9C20 10.1046 18.9767 11 17.7143 11H13V13H16C17.1046 13 18 13.8954 18 15C18 16.1046 17.1046 17 16 17H13V21C13 21.5523 12.5523 22 12 22C11.4477 22 11 21.5523 11 21V17H8C6.89543 17 6 16.1046 6 15C6 13.8954 6.89543 13 8 13H11Z" fill="black"/>
</svg>
