<svg width="24" height="24" viewBox="0 0 24 24" fill="none" xmlns="http://www.w3.org/2000/svg">
<path fill-rule="evenodd" clip-rule="evenodd" d="M17 13V15C17 16.1046 16.1046 17 15 17C13.8954 17 13 16.1046 13 15V13H11V17.7143C11 18.9767 10.1046 20 9 20C7.89543 20 7 18.9767 7 17.7143V13H3C2.44772 13 2 12.5523 2 12C2 11.4477 2.44772 11 3 11H7V6.28571C7 5.02335 7.89543 4 9 4C10.1046 4 11 5.02335 11 6.28571V11H13V9C13 7.89543 13.8954 7 15 7C16.1046 7 17 7.89543 17 9V11H21C21.5523 11 22 11.4477 22 12C22 12.5523 21.5523 13 21 13H17Z" fill="black"/>
</svg>
