<svg width="24" height="24" viewBox="0 0 24 24" fill="none" xmlns="http://www.w3.org/2000/svg">
<path fill-rule="evenodd" clip-rule="evenodd" d="M4.8 3H19.2C19.6418 3 20 3.44772 20 4C20 4.55228 19.6418 5 19.2 5H4.8C4.35817 5 4 4.55228 4 4C4 3.44772 4.35817 3 4.8 3ZM7 9C7 7.89543 7.89543 7 9 7C10.1046 7 11 7.89543 11 9V19C11 20.1046 10.1046 21 9 21C7.89543 21 7 20.1046 7 19V9ZM15 7C13.8954 7 13 7.89543 13 9V15C13 16.1046 13.8954 17 15 17C16.1046 17 17 16.1046 17 15V9C17 7.89543 16.1046 7 15 7Z" fill="black"/>
</svg>
