<svg width="24" height="24" viewBox="0 0 24 24" fill="none" xmlns="http://www.w3.org/2000/svg">
<path fill-rule="evenodd" clip-rule="evenodd" d="M17 21C17 21.5523 16.5523 22 16 22C15.4477 22 15 21.5523 15 21V3C15 2.44772 15.4477 2 16 2C16.5523 2 17 2.44772 17 3V21ZM11 5C12.1046 5 13 5.89543 13 7C13 8.10457 12.1046 9 11 9H5C3.89543 9 3 8.10457 3 7C3 5.89543 3.89543 5 5 5H11ZM13 14C13 12.8954 12.1046 12 11 12H7C5.89543 12 5 12.8954 5 14C5 15.1046 5.89543 16 7 16H11C12.1046 16 13 15.1046 13 14Z" fill="black"/>
</svg>
