<svg width="24" height="24" viewBox="0 0 24 24" fill="none" xmlns="http://www.w3.org/2000/svg">
<path fill-rule="evenodd" clip-rule="evenodd" d="M7 21C7 21.5523 6.55228 22 6 22C5.44772 22 5 21.5523 5 21V3C5 2.44772 5.44772 2 6 2C6.55228 2 7 2.44772 7 3V21ZM11 9C9.89543 9 9 8.10457 9 7C9 5.89543 9.89543 5 11 5H17C18.1046 5 19 5.89543 19 7C19 8.10457 18.1046 9 17 9H11ZM15 12H11C9.89543 12 9 12.8954 9 14C9 15.1046 9.89543 16 11 16H15C16.1046 16 17 15.1046 17 14C17 12.8954 16.1046 12 15 12Z" fill="black"/>
</svg>
