<svg width="24" height="24" viewBox="0 0 24 24" fill="none" xmlns="http://www.w3.org/2000/svg">
<path fill-rule="evenodd" clip-rule="evenodd" d="M11 15C11 16.1046 10.1046 17 9 17C7.89543 17 7 16.1046 7 15V5C7 3.89543 7.89543 3 9 3C10.1046 3 11 3.89543 11 5V15ZM4.8 19H19.2C19.6418 19 20 19.4477 20 20C20 20.5523 19.6418 21 19.2 21H4.8C4.35817 21 4 20.5523 4 20C4 19.4477 4.35817 19 4.8 19ZM15 17C16.1046 17 17 16.1046 17 15V9C17 7.89543 16.1046 7 15 7C13.8954 7 13 7.89543 13 9V15C13 16.1046 13.8954 17 15 17Z" fill="black"/>
</svg>
