<svg width="24" height="24" viewBox="0 0 24 24" fill="none" xmlns="http://www.w3.org/2000/svg">
<path fill-rule="evenodd" clip-rule="evenodd" d="M12 22C6.47715 22 2 17.5228 2 12C2 6.47715 6.47715 2 12 2C17.5228 2 22 6.47715 22 12C22 17.5228 17.5228 22 12 22ZM12 20C16.4183 20 20 16.4183 20 12C20 7.58172 16.4183 4 12 4C7.58172 4 4 7.58172 4 12C4 16.4183 7.58172 20 12 20ZM12 13C14.2091 13 16 14.7909 16 17H14.6611C14.6611 17 14.2442 14.3333 12 14.3333C9.75578 14.3333 9.33333 17 9.33333 17H8C8 14.7909 9.79086 13 12 13ZM10.5064 8.98984C10.7566 9.25784 10.9097 9.61762 10.9097 10.0132C10.9097 10.8416 10.2381 11.5132 9.40968 11.5132C8.58125 11.5132 7.90968 10.8416 7.90968 10.0132C7.90968 9.33143 8.36447 8.75592 8.98722 8.57348L7.32913 7.96998C7.06964 7.87554 6.93584 7.58861 7.03029 7.32913C7.12474 7.06964 7.41166 6.93584 7.67115 7.03029L10.4902 8.05635C10.7497 8.1508 10.8835 8.43772 10.7891 8.69721C10.7386 8.83584 10.6332 8.9386 10.5064 8.98984ZM13.4033 8.98984C13.2765 8.9386 13.1711 8.83584 13.1206 8.69721C13.0262 8.43772 13.16 8.1508 13.4195 8.05635L16.2385 7.03029C16.498 6.93584 16.7849 7.06964 16.8794 7.32913C16.9738 7.58861 16.84 7.87554 16.5805 7.96998L14.9225 8.57348C15.5452 8.75592 16 9.33143 16 10.0132C16 10.8416 15.3284 11.5132 14.5 11.5132C13.6716 11.5132 13 10.8416 13 10.0132C13 9.61762 13.1531 9.25784 13.4033 8.98984Z" fill="black"/>
</svg>
