<svg width="24" height="24" viewBox="0 0 24 24" fill="none" xmlns="http://www.w3.org/2000/svg">
<path fill-rule="evenodd" clip-rule="evenodd" d="M6 16V8H4C3.44772 8 3 7.55228 3 7C3 6.44772 3.44772 6 4 6H6V4C6 3.44772 6.44772 3 7 3C7.55228 3 8 3.44772 8 4V6H16V4C16 3.44772 16.4477 3 17 3C17.5523 3 18 3.44772 18 4V6H20C20.5523 6 21 6.44772 21 7C21 7.55228 20.5523 8 20 8H18V16H20C20.5523 16 21 16.4477 21 17C21 17.5523 20.5523 18 20 18H18V20C18 20.5523 17.5523 21 17 21C16.4477 21 16 20.5523 16 20V18H8V20C8 20.5523 7.55228 21 7 21C6.44772 21 6 20.5523 6 20V18H4C3.44772 18 3 17.5523 3 17C3 16.4477 3.44772 16 4 16H6ZM8 16H16V8H8V16Z" fill="black"/>
</svg>
