<svg width="24" height="24" viewBox="0 0 24 24" fill="none" xmlns="http://www.w3.org/2000/svg">
<path fill-rule="evenodd" clip-rule="evenodd" d="M11.9284 7.3352C11.9753 7.43187 12 7.54061 12 7.65117V11.9993C12 11.8925 12.0231 11.7841 12.0717 11.6841C12.1235 11.5777 12.2003 11.4899 12.2935 11.4308L19.1533 7.08193C19.4286 6.90743 19.7756 7.02082 19.9284 7.3352C19.9753 7.43187 20 7.54061 20 7.65117V16.349C20 16.7085 19.7448 17 19.43 17C19.3332 17 19.238 16.9718 19.1533 16.9182L12.2935 12.5693C12.1059 12.4504 12 12.2284 12 11.9996V16.349C12 16.7085 11.7448 17 11.43 17C11.3332 17 11.238 16.9718 11.1533 16.9182L4.29349 12.5693C4.01823 12.3948 3.91895 11.9985 4.07173 11.6841C4.12346 11.5777 4.20029 11.4899 4.29349 11.4308L11.1533 7.08193C11.4286 6.90743 11.7756 7.02082 11.9284 7.3352Z" fill="black"/>
</svg>
