<svg width="24" height="24" viewBox="0 0 24 24" fill="none" xmlns="http://www.w3.org/2000/svg">
<path fill-rule="evenodd" clip-rule="evenodd" d="M17 3C16.4477 3 16 3.44772 16 4V15C16 15.5523 16.4477 16 17 16C17.5523 16 18 15.5523 18 15V4C18 3.44772 17.5523 3 17 3ZM9 16C9.55228 16 10 15.5523 10 15V6C10 5.44772 9.55228 5 9 5C8.44772 5 8 5.44772 8 6V15C8 15.5523 8.44772 16 9 16ZM20 19H5V12C5 11.4477 4.55228 11 4 11C3.44772 11 3 11.4477 3 12V20C3 20.5523 3.44772 21 4 21H20C20.5523 21 21 20.5523 21 20C21 19.4477 20.5523 19 20 19ZM12 15V8C12 7.44772 12.4477 7 13 7C13.5523 7 14 7.44772 14 8V15C14 15.5523 13.5523 16 13 16C12.4477 16 12 15.5523 12 15Z" fill="black"/>
</svg>
