<svg width="24" height="24" viewBox="0 0 24 24" fill="none" xmlns="http://www.w3.org/2000/svg">
<path fill-rule="evenodd" clip-rule="evenodd" d="M17 19V16H19C20.1046 16 21 15.1046 21 14V9C21 7.89543 20.1046 7 19 7H17V5C17 3.89543 16.1046 3 15 3H5C3.89543 3 3 3.89543 3 5V19C3 20.1 3.9 21 5 21H15C16.1 21 17 20.1 17 19ZM5 8V5H15V8H5ZM5 10V19H15V10H5ZM17 14V9H19V14H17ZM9 16C9 16.5523 8.55228 17 8 17C7.44772 17 7 16.5523 7 16V13C7 12.4477 7.44772 12 8 12C8.55228 12 9 12.4477 9 13V16ZM12 17C12.5523 17 13 16.5523 13 16V13C13 12.4477 12.5523 12 12 12C11.4477 12 11 12.4477 11 13V16C11 16.5523 11.4477 17 12 17Z" fill="black"/>
</svg>
