<svg width="24" height="24" viewBox="0 0 24 24" fill="none" xmlns="http://www.w3.org/2000/svg">
<path fill-rule="evenodd" clip-rule="evenodd" d="M15 18V19C15 20.6569 13.6569 22 12 22C10.3431 22 9 20.6569 9 19V18H5C4.45 18 4 17.55 4 17C4 16.45 4.45 16 5 16H6V10C6 7.027 8.16229 4.55904 11 4.08296V3C11 2.44772 11.4477 2 12 2C12.5523 2 13 2.44772 13 3V4.08296C15.8377 4.55904 18 7.027 18 10V16H19C19.55 16 20 16.45 20 17C20 17.55 19.55 18 19 18H15ZM16 16V10C16 7.79086 14.2091 6 12 6C9.79086 6 8 7.79086 8 10V16H16ZM13 19C13 19.5523 12.5523 20 12 20C11.4477 20 11 19.5523 11 19V18H13V19Z" fill="black"/>
</svg>
