<svg width="24" height="24" viewBox="0 0 24 24" fill="none" xmlns="http://www.w3.org/2000/svg">
<path fill-rule="evenodd" clip-rule="evenodd" d="M8 3C8 3.55228 7.55228 4 7 4V5C7 5.55228 7.44772 6 8 6C8.55228 6 9 5.55228 9 5V4C9 3.44772 8.55228 3 8 3ZM21 14C21 11.7909 19.2091 10 17 10V7H15V10H13V7H11V10H9V7H7V10C4.79086 10 3 11.7909 3 14V19C3 20.1046 3.89543 21 5 21H19C20.1046 21 21 20.1046 21 19V14ZM5 14C5 12.8954 5.89543 12 7 12H17C18.1046 12 19 12.8954 19 14V15H5V14ZM19 17V19H5V17H19ZM11 4C11.5523 4 12 3.55228 12 3C12.5523 3 13 3.44772 13 4V5C13 5.55228 12.5523 6 12 6C11.4477 6 11 5.55228 11 5V4ZM16 3C16 3.55228 15.5523 4 15 4V5C15 5.55228 15.4477 6 16 6C16.5523 6 17 5.55228 17 5V4C17 3.44772 16.5523 3 16 3Z" fill="black"/>
</svg>
