<svg width="24" height="24" viewBox="0 0 24 24" fill="none" xmlns="http://www.w3.org/2000/svg">
<path fill-rule="evenodd" clip-rule="evenodd" d="M5 20C5 20 5 4 5 4C5 2.9 5.9 2 7 2H12C15 2 17.9655 3.4 18 6.91892C18 8.75676 17.069 10.6486 15.4682 11.2432V11.3784C17.5009 11.8919 19 13.4054 19 16.1081C19 17.1299 18.7972 18.0125 18.4267 18.7608C17.3373 20.9614 15.0907 22 12 22H7C5.9 22 5 21.1 5 20ZM8 19H12C14.5662 19 16 17.8 16 16C16 14.2 14.5917 13 12 13H8V19ZM8 10H11C13.3884 10 15 9.15 15 7.45C15 5.75 13.5 5 10.9964 5H8V10Z" fill="black"/>
</svg>
