<svg width="24" height="24" viewBox="0 0 24 24" fill="none" xmlns="http://www.w3.org/2000/svg">
<path fill-rule="evenodd" clip-rule="evenodd" d="M12 6.00823L10 4.05199L4 4.01098C2.89543 4.01098 2 4.90641 2 6.01098V15.9671C2 17.0664 2.88711 17.9596 3.98632 17.9671L10 18.0082L12.0041 20L14 18.0082L20.0137 17.9671C21.1129 17.9596 22 17.0664 22 15.9671L22 5.99726C21.9985 4.89269 21.1018 3.99849 19.9973 4L14 4.00823L12 6.00823ZM13 16.0057L20 15.9589V5.99178L14.8296 5.99887L13.0156 7.81288L13 16.0057ZM11 7.81288L9.1788 6.03819L4 6.00276V15.9589L11 16.0057V7.81288Z" fill="black"/>
</svg>
