<svg width="24" height="24" viewBox="0 0 24 24" fill="none" xmlns="http://www.w3.org/2000/svg">
<path fill-rule="evenodd" clip-rule="evenodd" d="M17 21C18.1046 21 19 20.1046 19 19V11.4649C20.1956 10.7733 21 9.48056 21 8V7C21 4.79086 19.2091 3 17 3H7C4.79086 3 3 4.79086 3 7V8C3 9.48056 3.8044 10.7733 5 11.4649V19C5 20.1046 5.89543 21 7 21H17ZM17 10.3113V19H7V10.3113L6.00145 9.73366C5.38553 9.37737 5 8.72334 5 8V7C5 5.89543 5.89543 5 7 5H17C18.1046 5 19 5.89543 19 7V8C19 8.72334 18.6145 9.37737 17.9985 9.73366L17 10.3113Z" fill="black"/>
</svg>
