<svg width="24" height="24" viewBox="0 0 24 24" fill="none" xmlns="http://www.w3.org/2000/svg">
<path fill-rule="evenodd" clip-rule="evenodd" d="M6 15H4C3.44772 15 3 14.5523 3 14C3 13.4477 3.44772 13 4 13H6V11.6635C5.65781 11.7679 5.27064 11.6849 5 11.4142L3.58579 10C3.19526 9.60948 3.19526 8.97631 3.58579 8.58579C3.97631 8.19526 4.60948 8.19526 5 8.58579L6.13637 9.72215C6.48248 8.12648 7.46339 6.76746 8.80143 5.92275L7.58579 4.70711C7.19526 4.31658 7.19526 3.68342 7.58579 3.29289C7.97631 2.90237 8.60948 2.90237 9 3.29289L10.8226 5.11548C11.2033 5.03973 11.597 5 12 5C12.403 5 12.7967 5.03973 13.1774 5.11548L15 3.29289C15.3905 2.90237 16.0237 2.90237 16.4142 3.29289C16.8047 3.68342 16.8047 4.31658 16.4142 4.70711L15.1986 5.92275C16.5366 6.76746 17.5175 8.12648 17.8636 9.72215L19 8.58579C19.3905 8.19526 20.0237 8.19526 20.4142 8.58579C20.8047 8.97631 20.8047 9.60948 20.4142 10L19 11.4142C18.7294 11.6849 18.3422 11.7679 18 11.6635V13H20C20.5523 13 21 13.4477 21 14C21 14.5523 20.5523 15 20 15H18C18 15.4834 17.9428 15.9534 17.8349 16.4036C18.2112 16.2097 18.6847 16.2705 19 16.5858L20.4142 18C20.8047 18.3905 20.8047 19.0237 20.4142 19.4142C20.0237 19.8047 19.3905 19.8047 19 19.4142L17.5858 18C17.4908 17.905 17.4189 17.7957 17.3702 17.679C16.386 19.6479 14.3509 21 12 21C9.6491 21 7.61399 19.6479 6.62984 17.679C6.58106 17.7957 6.50918 17.905 6.41421 18L5 19.4142C4.60948 19.8047 3.97631 19.8047 3.58579 19.4142C3.19526 19.0237 3.19526 18.3905 3.58579 18L5 16.5858C5.31532 16.2705 5.78883 16.2097 6.16508 16.4036C6.05715 15.9534 6 15.4834 6 15ZM15.874 10H8.12602C8.57006 8.27477 10.1362 7 12 7C13.8638 7 15.4299 8.27477 15.874 10ZM15.874 16C15.4299 17.7252 13.8638 19 12 19C10.1362 19 8.57006 17.7252 8.12602 16H15.874Z" fill="black"/>
</svg>
