<svg width="24" height="24" viewBox="0 0 24 24" fill="none" xmlns="http://www.w3.org/2000/svg">
<path fill-rule="evenodd" clip-rule="evenodd" d="M8 19H16C16 20.1046 16.8954 21 18 21C19.1046 21 20 20.1046 20 19V5C20 3.89543 19.1046 3 18 3H6C4.89543 3 4 3.89543 4 5V19C4 20.1046 4.89543 21 6 21C7.10457 21 8 20.1046 8 19ZM18 14C18 14.5523 17.5523 15 17 15C16.4477 15 16 14.5523 16 14C16 13.4477 16.4477 13 17 13C17.5523 13 18 13.4477 18 14ZM7 15C7.55228 15 8 14.5523 8 14C8 13.4477 7.55228 13 7 13C6.44772 13 6 13.4477 6 14C6 14.5523 6.44772 15 7 15ZM18 5H6V11H18V5Z" fill="black"/>
</svg>
