<svg width="24" height="24" viewBox="0 0 24 24" fill="none" xmlns="http://www.w3.org/2000/svg">
<path fill-rule="evenodd" clip-rule="evenodd" d="M14 4.34141C16.3304 5.16508 18 7.38756 18 10V19H18.5C19.3284 19 20 19.6716 20 20.5C20 21.3284 19.3284 22 18.5 22H5.5C4.67157 22 4 21.3284 4 20.5C4 19.6716 4.67157 19 5.5 19H6V10C6 7.38756 7.66962 5.16508 10 4.34141V4C10 2.89543 10.8954 2 12 2C13.1046 2 14 2.89543 14 4V4.34141ZM16 11V14H13V11H16ZM16 9H13V6C14.4672 6.37764 15.6224 7.53276 16 9ZM8 11H11V14H8V11ZM8 9C8.37764 7.53276 9.53276 6.37764 11 6V9H8ZM16 16V19H13V16H16ZM8 16H11V19H8V16Z" fill="black"/>
</svg>
