<svg width="24" height="24" viewBox="0 0 24 24" fill="none" xmlns="http://www.w3.org/2000/svg">
<path fill-rule="evenodd" clip-rule="evenodd" d="M3 13V18C3 19.1046 3.89543 20 5 20C6.10457 20 7 19.1046 7 18H17C17 19.1046 17.8954 20 19 20C20.1046 20 21 19.1046 21 18V13C21 11.8954 20.1046 11 19 11V8C19 5.79086 17.2091 4 15 4H9C6.79086 4 5 5.79086 5 8V11C3.89543 11 3 11.8954 3 13ZM9 6C7.89543 6 7 6.89543 7 8V11H17V8C17 6.89543 16.1046 6 15 6H9ZM6 15C6.55228 15 7 14.5523 7 14C7 13.4477 6.55228 13 6 13C5.44772 13 5 13.4477 5 14C5 14.5523 5.44772 15 6 15ZM19 14C19 14.5523 18.5523 15 18 15C17.4477 15 17 14.5523 17 14C17 13.4477 17.4477 13 18 13C18.5523 13 19 13.4477 19 14Z" fill="black"/>
</svg>
