<svg width="24" height="24" viewBox="0 0 24 24" fill="none" xmlns="http://www.w3.org/2000/svg">
<path fill-rule="evenodd" clip-rule="evenodd" d="M4 14H4.25203C4.44096 14.734 4.73146 15.4273 5.10764 16.0639L4.92893 16.2426C4.14788 17.0237 4.14788 18.29 4.92893 19.0711C5.70998 19.8521 6.97631 19.8521 7.75736 19.0711L7.93607 18.8924C8.57269 19.2685 9.26596 19.559 10 19.748V20C10 21.1046 10.8954 22 12 22C13.1046 22 14 21.1046 14 20V19.748C14.734 19.559 15.4273 19.2685 16.0639 18.8924L16.2426 19.0711C17.0237 19.8521 18.29 19.8521 19.0711 19.0711C19.8521 18.29 19.8521 17.0237 19.0711 16.2426L18.8924 16.0639C19.2685 15.4273 19.559 14.734 19.748 14H20C21.1046 14 22 13.1046 22 12C22 10.8954 21.1046 10 20 10H19.748C19.559 9.26596 19.2685 8.57269 18.8924 7.93607L19.0711 7.75736C19.8521 6.97631 19.8521 5.70998 19.0711 4.92893C18.29 4.14788 17.0237 4.14788 16.2426 4.92893L16.0639 5.10764C15.4273 4.73146 14.734 4.44096 14 4.25203V4C14 2.89543 13.1046 2 12 2C10.8954 2 10 2.89543 10 4V4.25203C9.26596 4.44096 8.57269 4.73146 7.93607 5.10764L7.75736 4.92893C6.97631 4.14788 5.70998 4.14788 4.92893 4.92893C4.14788 5.70998 4.14788 6.97631 4.92893 7.75736L5.10764 7.93607C4.73146 8.57269 4.44096 9.26596 4.25203 10H4C2.89543 10 2 10.8954 2 12C2 13.1046 2.89543 14 4 14ZM7 12L9 10L11 12L15 8L17 10L11 16L7 12Z" fill="black"/>
</svg>
