<svg width="24" height="24" viewBox="0 0 24 24" fill="none" xmlns="http://www.w3.org/2000/svg">
<path fill-rule="evenodd" clip-rule="evenodd" d="M22 12C22 17.5228 17.5228 22 12 22C6.47715 22 2 17.5228 2 12C2 6.47715 6.47715 2 12 2C17.5228 2 22 6.47715 22 12ZM12 4C16.4183 4 20 7.58172 20 12C20 16.4183 16.4183 20 12 20C7.58172 20 4 16.4183 4 12C4 7.58172 7.58172 4 12 4ZM16 11C16.5523 11 17 11.4477 17 12C17 12.5523 16.5523 13 16 13H13C11.9 13 11 12.1 11 11V7C11 6.44772 11.4477 6 12 6C12.5523 6 13 6.44772 13 7V11H16Z" fill="black"/>
</svg>
