<svg width="24" height="24" viewBox="0 0 24 24" fill="none" xmlns="http://www.w3.org/2000/svg">
<path fill-rule="evenodd" clip-rule="evenodd" d="M8.99183 10.389C8.83539 10.7472 8.48459 10.9815 8.09378 10.9887L7.45244 11.0004C6.09411 11.0254 5 12.1351 5 13.5C5 14.8807 6.11929 16 7.5 16H17C18.1046 16 19 15.1046 19 14C19 12.8954 18.1046 12 17 12C16.9831 12 16.9662 12.0002 16.9492 12.0006L16.1112 12.0211C15.6264 12.033 15.203 11.6954 15.1067 11.2201L14.9401 10.3986C14.6626 9.02973 13.4493 8 12 8C10.7727 8 9.7132 8.73723 9.24855 9.80121L8.99183 10.389ZM16.9002 10.0012C16.4374 7.71837 14.4194 6 12 6C9.94938 6 8.18709 7.23446 7.41571 9.00077C4.96932 9.04572 3 11.0429 3 13.5C3 15.9853 5.01472 18 7.5 18H17C19.2091 18 21 16.2091 21 14C21 11.7909 19.2091 10 17 10C16.9666 10 16.9334 10.0004 16.9002 10.0012Z" fill="black"/>
</svg>
