<svg width="24" height="24" viewBox="0 0 24 24" fill="none" xmlns="http://www.w3.org/2000/svg">
<path fill-rule="evenodd" clip-rule="evenodd" d="M8.89335 11.2201C8.79701 11.6954 8.37358 12.033 7.88882 12.0211L7.05083 12.0006C7.03383 12.0002 7.01688 12 7 12C5.89543 12 5 12.8954 5 14C5 15.1046 5.89543 16 7 16H17C18.1046 16 19 15.1046 19 14C19 12.8954 18.1046 12 17 12C16.9831 12 16.9662 12.0002 16.9492 12.0006L16.1112 12.0211C15.6264 12.033 15.203 11.6954 15.1066 11.2201L14.9401 10.3986C14.6626 9.02973 13.4493 8 12 8C10.5507 8 9.3374 9.02973 9.0599 10.3986L8.89335 11.2201ZM16.9002 10.0012C16.4374 7.71837 14.4194 6 12 6C9.58061 6 7.56257 7.71837 7.09977 10.0012C7.06661 10.0004 7.03335 10 7 10C4.79086 10 3 11.7909 3 14C3 16.2091 4.79086 18 7 18H17C19.2091 18 21 16.2091 21 14C21 11.7909 19.2091 10 17 10C16.9666 10 16.9334 10.0004 16.9002 10.0012Z" fill="black"/>
</svg>
