<svg width="24" height="24" viewBox="0 0 24 24" fill="none" xmlns="http://www.w3.org/2000/svg">
<path fill-rule="evenodd" clip-rule="evenodd" d="M8.89335 9.22012C8.797 9.69536 8.37358 10.033 7.88882 10.0211L7.05083 10.0006C7.03383 10.0002 7.01688 10 7 10C5.89543 10 5 10.8954 5 12C5 12.5523 4.55228 13 4 13C3.44772 13 3 12.5523 3 12C3 9.79086 4.79086 8 7 8C7.03335 8 7.06661 8.00041 7.09977 8.00122C7.56257 5.71837 9.58061 4 12 4C14.4194 4 16.4374 5.71837 16.9002 8.00122C16.9334 8.00041 16.9666 8 17 8C19.2091 8 21 9.79086 21 12C21 14.2091 19.2091 16 17 16C16.4477 16 16 15.5523 16 15C16 14.4477 16.4477 14 17 14C18.1046 14 19 13.1046 19 12C19 10.8954 18.1046 10 17 10C16.9831 10 16.9662 10.0002 16.9492 10.0006L16.1112 10.0211C15.6264 10.033 15.203 9.69536 15.1066 9.22012L14.9401 8.3986C14.6626 7.02973 13.4493 6 12 6C10.5507 6 9.3374 7.02973 9.0599 8.3986L8.89335 9.22012ZM9 13C9 12.4477 9.44772 12 10 12C10.5523 12 11 12.4477 11 13V13.5858L11.4142 13.1716C11.8047 12.781 12.4379 12.781 12.8284 13.1716C13.2189 13.5621 13.2189 14.1953 12.8284 14.5858L12.4142 15H13C13.5523 15 14 15.4477 14 16C14 16.5523 13.5523 17 13 17H12.4142L12.8284 17.4142C13.2189 17.8047 13.2189 18.4379 12.8284 18.8284C12.4379 19.219 11.8047 19.219 11.4142 18.8284L11 18.4142V19C11 19.5523 10.5523 20 10 20C9.44772 20 9 19.5523 9 19V18.4142L8.58577 18.8284C8.19524 19.219 7.56208 19.219 7.17155 18.8284C6.78103 18.4379 6.78103 17.8047 7.17155 17.4142L7.58577 17H7C6.44772 17 6 16.5523 6 16C6 15.4477 6.44772 15 7 15H7.58579L7.17158 14.5858C6.78105 14.1953 6.78105 13.5621 7.17158 13.1716C7.5621 12.781 8.19527 12.781 8.58579 13.1716L9 13.5858V13ZM10 15C10.1669 15 10.3242 14.9591 10.4625 14.8869C10.5093 15.0348 10.5914 15.174 10.7087 15.2913C10.826 15.4086 10.9652 15.4907 11.1131 15.5375C11.0409 15.6758 11 15.8331 11 16C11 16.1676 11.0412 16.3256 11.1141 16.4643C10.9664 16.5112 10.8274 16.5932 10.7103 16.7103C10.5932 16.8274 10.5112 16.9664 10.4643 17.1141C10.3255 17.0412 10.1676 17 10 17C9.83475 17 9.67887 17.0401 9.54153 17.1111C9.49478 16.9626 9.41255 16.8228 9.29486 16.7051C9.17716 16.5874 9.03744 16.5052 8.88895 16.4585C8.95992 16.3211 9 16.1652 9 16C9 15.8339 8.9595 15.6772 8.88783 15.5394C9.03602 15.4926 9.17547 15.4104 9.29295 15.2929C9.41044 15.1755 9.49258 15.036 9.53938 14.8878C9.67723 14.9595 9.83389 15 10 15Z" fill="black"/>
</svg>
