<svg width="24" height="24" viewBox="0 0 24 24" fill="none" xmlns="http://www.w3.org/2000/svg">
<path fill-rule="evenodd" clip-rule="evenodd" d="M12 5C12 4.44772 12.4477 4 13 4C13.5523 4 14 4.44771 14 5V5.99785C14 6.55013 13.5523 6.99785 13 6.99785C12.4477 6.99785 12 6.55013 12 5.99785V5ZM17.2929 6.63387C17.6834 6.24335 18.3166 6.24335 18.7071 6.63387C19.0976 7.0244 19.0976 7.65756 18.7071 8.04809L18 8.75519C17.6095 9.14572 16.9763 9.14572 16.5858 8.75519C16.1953 8.36467 16.1953 7.7315 16.5858 7.34098L17.2929 6.63387ZM17 13C17 10.2386 14.7614 8 12 8C11.4477 8 11 8.44772 11 9C11 9.55228 11.4477 10 12 10C13.6569 10 15 11.3431 15 13C15 13.5523 15.4477 14 16 14C16.5523 14 17 13.5523 17 13ZM6 18H13C13.5523 18 14 17.5523 14 17C14 16.6241 13.7933 16.2935 13.4779 16.121C12.7897 15.7444 12.1844 15.1194 11.8721 14.2931C11.5852 13.5343 10.8525 13 10 13C9.09247 13 8.32129 13.6061 8.07899 14.4397C7.80758 15.3736 6.95291 16 6 16C5.44771 16 5 16.4477 5 17C5 17.5523 5.44771 18 6 18ZM6 20H13C14.6569 20 16 18.6569 16 17C16 15.8641 15.3688 14.8757 14.4379 14.3664C14.1242 14.1948 13.8693 13.9204 13.7429 13.5859C13.1716 12.0747 11.7113 11 10 11C8.17908 11 6.64235 12.2167 6.15847 13.8815C6.13806 13.9518 6.07312 14 6 14C4.34315 14 3 15.3431 3 17C3 18.6569 4.34315 20 6 20ZM8.70711 6.63387C8.31658 6.24335 7.68342 6.24335 7.29289 6.63387C6.90237 7.0244 6.90237 7.65756 7.29289 8.04809L8 8.75519C8.39052 9.14572 9.02369 9.14572 9.41421 8.75519C9.80474 8.36467 9.80474 7.7315 9.41421 7.34098L8.70711 6.63387ZM18 11.9978C18 11.4455 18.4477 10.9978 19 10.9978H19.9993C20.5516 10.9978 20.9993 11.4455 20.9993 11.9978C20.9993 12.5501 20.5516 12.9978 19.9993 12.9978H19C18.4477 12.9978 18 12.5501 18 11.9978Z" fill="black"/>
</svg>
