<svg width="24" height="24" viewBox="0 0 24 24" fill="none" xmlns="http://www.w3.org/2000/svg">
<path fill-rule="evenodd" clip-rule="evenodd" d="M8.89335 9.22012C8.797 9.69536 8.37358 10.033 7.88882 10.0211L7.05083 10.0006C7.03383 10.0002 7.01688 10 7 10C5.89543 10 5 10.8954 5 12C5 13.1046 5.89543 14 7 14C7.55228 14 8 14.4477 8 15C8 15.5523 7.55228 16 7 16C4.79086 16 3 14.2091 3 12C3 9.79086 4.79086 8 7 8C7.03335 8 7.06661 8.00041 7.09977 8.00122C7.56257 5.71837 9.58061 4 12 4C14.4194 4 16.4374 5.71837 16.9002 8.00122C16.9334 8.00041 16.9666 8 17 8C19.2091 8 21 9.79086 21 12C21 14.2091 19.2091 16 17 16C16.4477 16 16 15.5523 16 15C16 14.4477 16.4477 14 17 14C18.1046 14 19 13.1046 19 12C19 10.8954 18.1046 10 17 10C16.9831 10 16.9662 10.0002 16.9492 10.0006L16.1112 10.0211C15.6264 10.033 15.203 9.69536 15.1066 9.22012L14.9401 8.3986C14.6626 7.02973 13.4493 6 12 6C10.5507 6 9.3374 7.02973 9.0599 8.3986L8.89335 9.22012ZM10.7201 13.9302C11.0127 13.4618 11.6297 13.3194 12.098 13.6121C12.5664 13.9048 12.7088 14.5217 12.4162 14.9901L10.8264 17.5342C10.5338 18.0026 9.91682 18.145 9.44845 17.8523C8.98009 17.5597 8.83766 16.9427 9.13032 16.4744L10.7201 13.9302ZM13.1201 15.9302C13.4127 15.4618 14.0297 15.3194 14.498 15.6121C14.9664 15.9048 15.1088 16.5217 14.8162 16.9901L13.2264 19.5342C12.9337 20.0026 12.3168 20.145 11.8484 19.8523C11.3801 19.5597 11.2377 18.9427 11.5303 18.4744L13.1201 15.9302Z" fill="black"/>
</svg>
