<svg width="24" height="24" viewBox="0 0 24 24" fill="none" xmlns="http://www.w3.org/2000/svg">
<path fill-rule="evenodd" clip-rule="evenodd" d="M8.89335 9.22012C8.797 9.69536 8.37358 10.033 7.88882 10.0211L7.05083 10.0006C7.03383 10.0002 7.01688 10 7 10C5.89543 10 5 10.8954 5 12C5 13.1046 5.89543 14 7 14C7.55228 14 8 14.4477 8 15C8 15.5523 7.55228 16 7 16C4.79086 16 3 14.2091 3 12C3 9.79086 4.79086 8 7 8C7.03335 8 7.06661 8.00041 7.09977 8.00122C7.56257 5.71837 9.58061 4 12 4C14.4194 4 16.4374 5.71837 16.9002 8.00122C16.9334 8.00041 16.9666 8 17 8C19.2091 8 21 9.79086 21 12C21 14.2091 19.2091 16 17 16C16.4477 16 16 15.5523 16 15C16 14.4477 16.4477 14 17 14C18.1046 14 19 13.1046 19 12C19 10.8954 18.1046 10 17 10C16.9831 10 16.9662 10.0002 16.9492 10.0006L16.1112 10.0211C15.6264 10.033 15.203 9.69536 15.1066 9.22012L14.9401 8.3986C14.6626 7.02973 13.4493 6 12 6C10.5507 6 9.3374 7.02973 9.0599 8.3986L8.89335 9.22012ZM11 16H9L13 11V15H15L11 20V16Z" fill="black"/>
</svg>
