<svg width="24" height="24" viewBox="0 0 24 24" fill="none" xmlns="http://www.w3.org/2000/svg">
<path fill-rule="evenodd" clip-rule="evenodd" d="M22 12C22 8.68629 19.3137 6 16 6C13.9585 6 12.1551 7.01961 11.0713 8.57737C10.4671 8.21095 9.7582 8 9 8C6.79086 8 5 9.79086 5 12C3.34315 12 2 13.3431 2 15C2 16.6569 3.34315 18 5 18H16C19.3137 18 22 15.3137 22 12ZM11.6403 11.2615L12.7131 9.71959C13.4579 8.64904 14.6726 8 16 8C18.2091 8 20 9.79086 20 12C20 14.2091 18.2091 16 16 16H5C4.44772 16 4 15.5523 4 15C4 14.4477 4.44772 14 5 14H7V12C7 10.8954 7.89543 10 9 10C9.37236 10 9.72516 10.1 10.0342 10.2874L11.6403 11.2615Z" fill="black"/>
</svg>
