<svg width="24" height="24" viewBox="0 0 24 24" fill="none" xmlns="http://www.w3.org/2000/svg">
<path fill-rule="evenodd" clip-rule="evenodd" d="M7.88882 9.02114C8.37358 9.033 8.797 8.69536 8.89335 8.22012L9.0599 7.3986C9.3374 6.02973 10.5507 5 12 5C13.4493 5 14.6626 6.02973 14.9401 7.3986L15.1066 8.22012C15.203 8.69536 15.6264 9.033 16.1112 9.02113L16.9492 9.00062C16.9662 9.00021 16.9831 9 17 9C18.1046 9 19 9.89543 19 11C19 12.1046 18.1046 13 17 13C16.4477 13 16 13.4477 16 14C16 14.5523 16.4477 15 17 15C19.2091 15 21 13.2091 21 11C21 8.79086 19.2091 7 17 7C16.9666 7 16.9334 7.00041 16.9002 7.00122C16.4374 4.71837 14.4194 3 12 3C9.58061 3 7.56257 4.71837 7.09977 7.00122C7.06661 7.00041 7.03335 7 7 7C4.79086 7 3 8.79086 3 11C3 11.5523 3.44772 12 4 12C4.55228 12 5 11.5523 5 11C5 9.89543 5.89543 9 7 9C7.01688 9 7.03383 9.00021 7.05083 9.00062L7.88882 9.02114ZM14 14C14 12.3431 12.6569 11 11 11C10.4477 11 10 11.4477 10 12C10 12.5523 10.4477 13 11 13C11.5523 13 12 13.4477 12 14C12 14.5523 11.5523 15 11 15H4C3.44772 15 3 15.4477 3 16C3 16.5523 3.44772 17 4 17H11C12.6569 17 14 15.6569 14 14ZM6 19H17C17.5523 19 18 19.4477 18 20C18 20.5523 17.5523 21 17 21H6C5.44772 21 5 20.5523 5 20C5 19.4477 5.44772 19 6 19Z" fill="black"/>
</svg>
