<svg width="24" height="24" viewBox="0 0 24 24" fill="none" xmlns="http://www.w3.org/2000/svg">
<path fill-rule="evenodd" clip-rule="evenodd" d="M21.9923 15.1594C21.9973 15.1221 22 15.0848 22 15.0469V8.9531C22 8.91522 21.9973 8.87789 21.9923 8.84104L21.9903 8.82912L21.9887 8.82076L21.9887 8.82071C21.9876 8.81509 21.9864 8.80945 21.9855 8.80371L21.9844 8.79759C21.9803 8.77543 21.9763 8.75331 21.9705 8.73164C21.9679 8.72159 21.9645 8.7118 21.9612 8.7021L21.9611 8.70205L21.9611 8.70202L21.9571 8.69007L21.9565 8.68846L21.9565 8.68843L21.9565 8.68841L21.9565 8.68838L21.9565 8.68835L21.9565 8.6883C21.9498 8.66784 21.9432 8.64745 21.935 8.62744C21.9312 8.61815 21.9268 8.60884 21.9225 8.59966L21.9158 8.5854C21.9066 8.56591 21.8971 8.54697 21.8866 8.52858C21.8789 8.5149 21.8703 8.50178 21.8621 8.48858C21.8505 8.47074 21.8388 8.45337 21.8259 8.43648C21.8164 8.4239 21.8066 8.41125 21.7962 8.39922C21.7827 8.38343 21.7685 8.36763 21.7535 8.35286L21.7488 8.34805C21.7391 8.33812 21.7295 8.32829 21.7193 8.31923C21.7038 8.30501 21.6873 8.29133 21.6705 8.27813L21.6674 8.27577C21.6557 8.26658 21.6441 8.25742 21.6317 8.24873L21.6292 8.24704L21.625 8.24382L21.625 8.24379C21.6225 8.24183 21.6199 8.23988 21.6173 8.23821L12.4769 2.1444C12.188 1.95187 11.8122 1.95187 11.5234 2.1444L2.38274 8.23821C2.38023 8.23986 2.37781 8.24179 2.3754 8.24372C2.37322 8.24546 2.37104 8.24721 2.3688 8.24873C2.35533 8.25817 2.34247 8.26815 2.32982 8.27813C2.313 8.29133 2.29666 8.30501 2.28114 8.31923C2.26981 8.32931 2.25899 8.34034 2.24812 8.3514L2.24668 8.35286C2.23267 8.36669 2.21961 8.38141 2.2065 8.39619L2.2065 8.39619L2.20382 8.39922C2.19383 8.41125 2.18385 8.4239 2.17442 8.43648C2.16177 8.45337 2.14966 8.47074 2.13832 8.48858C2.12963 8.50178 2.1215 8.5149 2.11363 8.52858C2.1031 8.54697 2.09367 8.56591 2.08444 8.5854C2.07788 8.59907 2.07124 8.61329 2.06523 8.62744C2.05682 8.64802 2.04971 8.66901 2.04314 8.69007C2.03842 8.70375 2.03371 8.71742 2.02974 8.73164C2.02421 8.75222 2.02033 8.77322 2.01645 8.79427L2.0147 8.80371C2.01382 8.80914 2.01274 8.81447 2.01166 8.81978L2.01166 8.81978C2.01023 8.82683 2.0088 8.83386 2.00786 8.84104C2.00287 8.87789 2 8.91522 2 8.9531V15.0469C2 15.0848 2.00287 15.1221 2.00786 15.1594C2.00882 15.1665 2.0103 15.1738 2.01178 15.1811L2.01178 15.1811C2.01282 15.1862 2.01385 15.1913 2.0147 15.1963L2.01645 15.2057L2.01645 15.2057C2.02033 15.2268 2.02421 15.2478 2.02974 15.2684C2.03352 15.2819 2.03799 15.2949 2.04249 15.308L2.04314 15.3099C2.04971 15.3309 2.05682 15.352 2.06523 15.3731C2.07079 15.3862 2.07688 15.3989 2.08296 15.4115L2.08444 15.4146C2.09367 15.4341 2.1031 15.453 2.11363 15.472C2.1215 15.4851 2.12963 15.4983 2.13832 15.5114C2.14966 15.5293 2.16177 15.5467 2.17442 15.5635C2.18385 15.5766 2.19383 15.5887 2.20382 15.6008L2.20749 15.605C2.22026 15.6193 2.23302 15.6337 2.24668 15.6471L2.24669 15.6471L2.2467 15.6471C2.25804 15.6587 2.26932 15.6702 2.28114 15.6808C2.29666 15.695 2.313 15.7087 2.32982 15.7218C2.34247 15.7318 2.35533 15.7418 2.3688 15.7513C2.37104 15.7528 2.37322 15.7545 2.3754 15.7563L2.37541 15.7563C2.37782 15.7582 2.38024 15.7601 2.38274 15.7618L11.5234 21.8556C11.6678 21.9519 11.8341 22.0002 12 22.0002C12.1665 22.0002 12.3325 21.9519 12.4769 21.8556L21.6173 15.7618C21.6199 15.7601 21.6224 15.7582 21.6249 15.7562L21.625 15.7562C21.6272 15.7545 21.6294 15.7528 21.6317 15.7513C21.6448 15.7421 21.657 15.7324 21.6693 15.7227L21.6705 15.7218C21.6873 15.7087 21.7038 15.695 21.7193 15.6808C21.7298 15.6714 21.7397 15.6612 21.7498 15.6509L21.7498 15.6508L21.7535 15.6471C21.7685 15.6324 21.7827 15.6166 21.7962 15.6008C21.8066 15.5887 21.8164 15.5766 21.8259 15.5635C21.8388 15.5467 21.8505 15.5293 21.8621 15.5114C21.8703 15.4983 21.8789 15.4851 21.8866 15.472C21.8971 15.453 21.9066 15.4341 21.9158 15.4146L21.9231 15.3992C21.9272 15.3906 21.9314 15.382 21.935 15.3731C21.9429 15.3534 21.9494 15.3336 21.9558 15.3139L21.9571 15.3099L21.9613 15.2975C21.9646 15.2879 21.9679 15.2783 21.9705 15.2684C21.9763 15.2467 21.9803 15.2246 21.9844 15.2024L21.9844 15.2024L21.9855 15.1963C21.9864 15.1909 21.9875 15.1855 21.9886 15.18C21.9899 15.1731 21.9913 15.1662 21.9923 15.1594ZM3.71886 13.4382V10.5618L5.86914 12L3.71886 13.4382ZM11.1407 8.47387V4.46539L4.40697 8.95418L7.4149 10.9663L11.1407 8.47387ZM12.8596 4.46538L19.5933 8.95417L16.5856 10.9663L12.8596 8.47386V4.46538ZM4.40695 15.0458L11.1406 19.5346V15.5261L7.41495 13.0342L4.40695 15.0458ZM12.8595 19.5347V15.5261L16.5856 13.0342L19.5933 15.0459L12.8595 19.5347ZM12 9.96682L8.96043 12L12 14.0332L15.0398 12L12 9.96682ZM20.2814 10.5618V13.4382L18.1314 12L20.2814 10.5618Z" fill="#050101"/>
</svg>
