<svg width="24" height="24" viewBox="0 0 24 24" fill="none" xmlns="http://www.w3.org/2000/svg">
<path fill-rule="evenodd" clip-rule="evenodd" d="M17 7H18C19.1046 7 20 7.89543 20 9C20 10.1046 19.1046 11 18 11H17C16.9666 11 16.9334 10.9992 16.9005 10.9976C16.4381 13.281 14.4198 15 12 15H10C7.23858 15 5 12.7614 5 10V7C5 5.89543 5.89543 5 7 5H15C16.1046 5 17 5.89543 17 7ZM20 17C20.5523 17 21 17.4477 21 18C21 18.5523 20.5523 19 20 19H4C3.44772 19 3 18.5523 3 18C3 17.4477 3.44772 17 4 17H20ZM7 10V7H15V10C15 11.6569 13.6569 13 12 13H10C8.34315 13 7 11.6569 7 10Z" fill="black"/>
</svg>
