<svg width="24" height="24" viewBox="0 0 24 24" fill="none" xmlns="http://www.w3.org/2000/svg">
<path fill-rule="evenodd" clip-rule="evenodd" d="M4.36807 14.6319L3 16V13.1991C2.36657 12.2731 2 11.1761 2 10C2 6.68629 4.91015 4 8.5 4C11.7539 4 14.4494 6.20709 14.9254 9.08797C15.274 9.03018 15.6332 9 16 9C19.3137 9 22 11.4624 22 14.5C22 15.6245 21.6318 16.6702 21 17.5413V20L19.7751 18.7751C18.7441 19.5411 17.4305 20 16 20C13.175 20 10.806 18.2104 10.1687 15.8004C9.63619 15.9306 9.07687 16 8.5 16C6.93069 16 5.49127 15.4866 4.36807 14.6319ZM8.5 14C11.0194 14 13 12.1718 13 10C13 7.8282 11.0194 6 8.5 6C5.98055 6 4 7.8282 4 10C4 12.1718 5.98055 14 8.5 14ZM14.8833 11.1379C14.5451 12.7639 13.4959 14.1565 12.046 15.0293C12.3368 16.6882 13.972 18 16 18C18.2395 18 20 16.4003 20 14.5C20 12.5997 18.2395 11 16 11C15.6111 11 15.2366 11.0482 14.8833 11.1379Z" fill="black"/>
</svg>
