<svg width="24" height="24" viewBox="0 0 24 24" fill="none" xmlns="http://www.w3.org/2000/svg">
<path fill-rule="evenodd" clip-rule="evenodd" d="M5 16.843V21L7.26821 18.7318C8.64299 19.5359 10.2641 20 12 20C16.9706 20 21 16.1944 21 11.5C21 6.80558 16.9706 3 12 3C7.02944 3 3 6.80558 3 11.5C3 13.5242 3.7492 15.3832 5 16.843ZM19 11.5C19 15.0899 15.866 18 12 18C8.13401 18 5 15.0899 5 11.5C5 7.91015 8.13401 5 12 5C15.866 5 19 7.91015 19 11.5ZM9.5 13C10.3284 13 11 12.3284 11 11.5C11 10.6716 10.3284 10 9.5 10C8.67157 10 8 10.6716 8 11.5C8 12.3284 8.67157 13 9.5 13ZM16 11.5C16 12.3284 15.3284 13 14.5 13C13.6716 13 13 12.3284 13 11.5C13 10.6716 13.6716 10 14.5 10C15.3284 10 16 10.6716 16 11.5Z" fill="black"/>
</svg>
