<svg width="24" height="24" viewBox="0 0 24 24" fill="none" xmlns="http://www.w3.org/2000/svg">
<path fill-rule="evenodd" clip-rule="evenodd" d="M9.5 12C10.3284 12 11 11.3284 11 10.5C11 9.67157 10.3284 9 9.5 9C8.67157 9 8 9.67157 8 10.5C8 11.3284 8.67157 12 9.5 12ZM15 16C15 14.3431 13.6569 13 12 13C10.3431 13 9 14.3431 9 16C9.34439 16 10 16 10 16C10 16 10.3168 14 12 14C13.6832 14 13.9958 16 13.9958 16C13.9958 16 14.7002 16 15 16ZM14.5 12C15.3284 12 16 11.3284 16 10.5C16 9.67157 15.3284 9 14.5 9C13.6716 9 13 9.67157 13 10.5C13 11.3284 13.6716 12 14.5 12ZM12 20C16.4183 20 20 16.4183 20 12C20 7.58172 16.4183 4 12 4C7.58172 4 4 7.58172 4 12C4 16.4183 7.58172 20 12 20ZM12 22C6.47715 22 2 17.5228 2 12C2 6.47715 6.47715 2 12 2C17.5228 2 22 6.47715 22 12C22 17.5228 17.5228 22 12 22ZM16 15C16.5523 15 17 14.5523 17 14C17 13.4477 16 12 16 12C16 12 15 13.4477 15 14C15 14.5523 15.4477 15 16 15Z" fill="black"/>
</svg>
