<svg width="24" height="24" viewBox="0 0 24 24" fill="none" xmlns="http://www.w3.org/2000/svg">
<path fill-rule="evenodd" clip-rule="evenodd" d="M9 21V13C10.1046 13 11 12.1046 11 11V4C11 2.89543 10.1046 2 9 2V8H7V2C5.89543 2 5 2.89543 5 4V11C5 12.1046 5.89543 13 7 13V21C7 21.5523 7.44772 22 8 22C8.55228 22 9 21.5523 9 21ZM18 21V4C18 2.89543 17.1046 2 16 2H15C13.8954 2 13 2.89543 13 4V13C13 14.1046 13.8954 15 15 15H16V21C16 21.5523 16.4477 22 17 22C17.5523 22 18 21.5523 18 21Z" fill="black"/>
</svg>
