<svg width="24" height="24" viewBox="0 0 24 24" fill="none" xmlns="http://www.w3.org/2000/svg">
<path fill-rule="evenodd" clip-rule="evenodd" d="M11 15V17H7C4.23858 17 2 14.7614 2 12C2 9.23858 4.23858 7 7 7H11V9H7C5.34315 9 4 10.3431 4 12C4 13.6569 5.34315 15 7 15H11ZM13 15V17H17C19.7614 17 22 14.7614 22 12C22 9.23858 19.7614 7 17 7H13V9H17C18.6569 9 20 10.3431 20 12C20 13.6569 18.6569 15 17 15H13ZM13 11H15C15.5523 11 16 11.4477 16 12C16 12.5523 15.5523 13 15 13H13V11ZM11 11H9C8.44772 11 8 11.4477 8 12C8 12.5523 8.44772 13 9 13H11V11Z" fill="black"/>
</svg>
