<svg width="24" height="24" viewBox="0 0 24 24" fill="none" xmlns="http://www.w3.org/2000/svg">
<path fill-rule="evenodd" clip-rule="evenodd" d="M12 22C6.47715 22 2 17.5228 2 12C2 6.47715 6.47715 2 12 2C17.5228 2 22 6.47715 22 12C22 17.5228 17.5228 22 12 22ZM12 20C16.4183 20 20 16.4183 20 12C20 7.58172 16.4183 4 12 4C7.58172 4 4 7.58172 4 12C4 16.4183 7.58172 20 12 20ZM12 13C14.2091 13 16 14.7909 16 17H14.6611C14.6611 17 14.2442 14.3333 12 14.3333C9.75578 14.3333 9.33333 17 9.33333 17H8C8 14.7909 9.79086 13 12 13ZM13.7661 9.19151L13 9V8L17 9V10L15.7632 9.69081C15.9131 9.92427 16 10.202 16 10.5C16 11.3284 15.3284 12 14.5 12C13.6716 12 13 11.3284 13 10.5C13 9.93818 13.3089 9.44851 13.7661 9.19151ZM8.23676 9.69081L7 10V9L11 8V9L10.2339 9.19151C10.6911 9.44851 11 9.93818 11 10.5C11 11.3284 10.3284 12 9.5 12C8.67157 12 8 11.3284 8 10.5C8 10.202 8.08691 9.92427 8.23676 9.69081Z" fill="black"/>
</svg>
