<svg width="24" height="24" viewBox="0 0 24 24" fill="none" xmlns="http://www.w3.org/2000/svg">
<path fill-rule="evenodd" clip-rule="evenodd" d="M7 21C7 21.5523 6.55228 22 6 22C5.44772 22 5 21.5523 5 21V3C5 2.44772 5.44772 2 6 2C6.55228 2 7 2.44772 7 3V21ZM19 21C19 21.5523 18.5523 22 18 22C17.4477 22 17 21.5523 17 21V3C17 2.44772 17.4477 2 18 2C18.5523 2 19 2.44772 19 3V21ZM12 19C13.1046 19 14 18.1046 14 17V7C14 5.89543 13.1046 5 12 5C10.8954 5 10 5.89543 10 7V17C10 18.1046 10.8954 19 12 19Z" fill="black"/>
</svg>
