<svg width="24" height="24" viewBox="0 0 24 24" fill="none" xmlns="http://www.w3.org/2000/svg">
<path fill-rule="evenodd" clip-rule="evenodd" d="M21 9C21 8.44772 20.5523 8 20 8V4.91465C20.5826 4.70873 21 4.15311 21 3.5C21 2.67157 20.3284 2 19.5 2C18.8469 2 18.2913 2.4174 18.0854 3H5.91465C5.70873 2.4174 5.15311 2 4.5 2C3.67157 2 3 2.67157 3 3.5C3 4.15311 3.4174 4.70873 4 4.91465V8C3.44772 8 3 8.44772 3 9V21C3 21.5523 3.44772 22 4 22H20C20.5523 22 21 21.5523 21 21V9ZM5 20V10H19V20H5ZM6 5V8H11V5H6ZM13 8V5H18V8H13Z" fill="black"/>
</svg>
