<svg width="24" height="24" viewBox="0 0 24 24" fill="none" xmlns="http://www.w3.org/2000/svg">
<path fill-rule="evenodd" clip-rule="evenodd" d="M15 8V6C15 5.44772 14.5523 5 14 5C13.4477 5 13 5.44772 13 6V8C13 8.55228 13.4477 9 14 9C14.5523 9 15 8.55228 15 8ZM19 10C19 9.44772 18.5523 9 18 9C17.4477 9 17 9.44772 17 10V12C17 12.5523 17.4477 13 18 13C18.5523 13 19 12.5523 19 12V10ZM19 18V16C19 15.4477 18.5523 15 18 15C17.4477 15 17 15.4477 17 16V18C17 18.5523 17.4477 19 18 19C18.5523 19 19 18.5523 19 18ZM14 11C14.5523 11 15 11.4477 15 12V14C15 14.5523 14.5523 15 14 15C13.4477 15 13 14.5523 13 14V12C13 11.4477 13.4477 11 14 11ZM11 16V18C11 18.5523 10.5523 19 10 19C9.44772 19 9 18.5523 9 18V16C9 15.4477 9.44772 15 10 15C10.5523 15 11 15.4477 11 16ZM11 10C11 9.44772 10.5523 9 10 9C9.44772 9 9 9.44772 9 10V12C9 12.5523 9.44772 13 10 13C10.5523 13 11 12.5523 11 12V10ZM7 12V14C7 14.5523 6.55228 15 6 15C5.44772 15 5 14.5523 5 14V12C5 11.4477 5.44772 11 6 11C6.55228 11 7 11.4477 7 12ZM7 8V6C7 5.44772 6.55228 5 6 5C5.44772 5 5 5.44772 5 6V8C5 8.55228 5.44772 9 6 9C6.55228 9 7 8.55228 7 8Z" fill="black"/>
</svg>
