<svg width="24" height="24" viewBox="0 0 24 24" fill="none" xmlns="http://www.w3.org/2000/svg">
<path fill-rule="evenodd" clip-rule="evenodd" d="M17.8035 12.4827L12.9728 6.43468C12.8872 6.32748 12.777 6.23548 12.6485 6.16401C12.1112 5.86503 11.3853 5.98622 11.0271 6.43468L6.19637 12.4827C6.06833 12.643 6 12.8314 6 13.0241C6 13.5631 6.52349 14 7.16924 14H16.8306C17.0615 14 17.2871 13.943 17.4792 13.8361C18.0165 13.5371 18.1617 12.9312 17.8035 12.4827ZM17 16H7C6.44772 16 6 16.4477 6 17C6 17.5523 6.44772 18 7 18H17C17.5523 18 18 17.5523 18 17C18 16.4477 17.5523 16 17 16Z" fill="black"/>
</svg>
