<svg width="24" height="24" viewBox="0 0 24 24" fill="none" xmlns="http://www.w3.org/2000/svg">
<path fill-rule="evenodd" clip-rule="evenodd" d="M16 5C14.6938 5 13.5825 5.83481 13.1707 7H3C2.44772 7 2 7.44772 2 8C2 8.55228 2.44772 9 3 9H13.1707C13.5825 10.1652 14.6938 11 16 11C17.3062 11 18.4175 10.1652 18.8293 9H21C21.5523 9 22 8.55228 22 8C22 7.44772 21.5523 7 21 7H18.8293C18.4175 5.83481 17.3062 5 16 5ZM8 13C6.69378 13 5.58254 13.8348 5.17071 15H3C2.44772 15 2 15.4477 2 16C2 16.5523 2.44772 17 3 17H5.17071C5.58254 18.1652 6.69378 19 8 19C9.30622 19 10.4175 18.1652 10.8293 17H21C21.5523 17 22 16.5523 22 16C22 15.4477 21.5523 15 21 15H10.8293C10.4175 13.8348 9.30622 13 8 13ZM16 9C16.5523 9 17 8.55228 17 8C17 7.44772 16.5523 7 16 7C15.4477 7 15 7.44772 15 8C15 8.55228 15.4477 9 16 9ZM9 16C9 16.5523 8.55228 17 8 17C7.44772 17 7 16.5523 7 16C7 15.4477 7.44772 15 8 15C8.55228 15 9 15.4477 9 16Z" fill="black"/>
</svg>
