<svg width="24" height="24" viewBox="0 0 24 24" fill="none" xmlns="http://www.w3.org/2000/svg">
<path fill-rule="evenodd" clip-rule="evenodd" d="M22 20.8963C22 21.5059 21.5057 22.0002 20.8962 22.0002H15.7247V14.2551H18.3245L18.7137 11.2367H15.7247V9.30952C15.7247 8.43561 15.9673 7.84009 17.2206 7.84009L18.819 7.83934V5.13969C18.5425 5.10297 17.5937 5.02076 16.4899 5.02076C14.1854 5.02076 12.6077 6.42739 12.6077 9.01067V11.2367H10.0014V14.2551H12.6077V22.0002H3.10381C2.49406 22.0002 2 21.5059 2 20.8963V3.10389C2 2.49413 2.49406 2 3.10381 2H20.8962C21.5057 2 22 2.49413 22 3.10389V20.8963Z" fill="black"/>
</svg>
