<svg width="24" height="24" viewBox="0 0 24 24" fill="none" xmlns="http://www.w3.org/2000/svg">
<path fill-rule="evenodd" clip-rule="evenodd" d="M13 7.65117C13 7.54061 12.9753 7.43187 12.9284 7.3352C12.7756 7.02082 12.4286 6.90743 12.1533 7.08193L5.29349 11.4308C5.20029 11.4899 5.12346 11.5777 5.07173 11.6841C5.02309 11.7842 5 11.8926 5 11.9995V8C5 7.44772 4.55228 7 4 7C3.44772 7 3 7.44772 3 8V16C3 16.5523 3.5 17 4 17C4.5 17 5 16.5523 5 16V11.9995C5 12.2283 5.10586 12.4503 5.29349 12.5693L12.1533 16.9182C12.238 16.9718 12.3332 17 12.43 17C12.7448 17 13 16.7085 13 16.349V7.65117ZM21 7.65117C21 7.54061 20.9753 7.43187 20.9284 7.3352C20.7756 7.02082 20.4286 6.90743 20.1533 7.08193L13.2935 11.4308C13.2003 11.4899 13.1235 11.5777 13.0717 11.6841C12.9189 11.9985 13.0182 12.3948 13.2935 12.5693L20.1533 16.9182C20.238 16.9718 20.3332 17 20.43 17C20.7448 17 21 16.7085 21 16.349V7.65117Z" fill="black"/>
</svg>
