<svg width="24" height="24" viewBox="0 0 24 24" fill="none" xmlns="http://www.w3.org/2000/svg">
<path fill-rule="evenodd" clip-rule="evenodd" d="M3 7.65117C3 7.54061 3.02465 7.43187 3.07163 7.3352C3.22442 7.02082 3.57141 6.90743 3.84667 7.08193L10.7065 11.4308C10.7997 11.4899 10.8765 11.5777 10.9283 11.6841C10.9768 11.784 10.9999 11.8922 11 11.9988V7.65117C11 7.54061 11.0247 7.43187 11.0716 7.3352C11.2244 7.02082 11.5714 6.90743 11.8467 7.08193L18.7065 11.4308C18.7997 11.4899 18.8765 11.5777 18.9283 11.6841C19.0811 11.9985 18.9818 12.3948 18.7065 12.5693L11.8467 16.9182C11.762 16.9718 11.6668 17 11.57 17C11.2552 17 11 16.7085 11 16.349V12.0001C10.9998 12.2287 10.894 12.4505 10.7065 12.5693L3.84667 16.9182C3.76203 16.9718 3.66683 17 3.57003 17C3.25521 17 3 16.7085 3 16.349V7.65117ZM20 17C20.5 17 21 16.5523 21 16V8C21 7.44772 20.5523 7 20 7C19.4477 7 19 7.44772 19 8V16C19 16.5523 19.5 17 20 17Z" fill="black"/>
</svg>
