<svg width="24" height="24" viewBox="0 0 24 24" fill="none" xmlns="http://www.w3.org/2000/svg">
<path fill-rule="evenodd" clip-rule="evenodd" d="M18.9711 21C18.4727 12.4075 11.5925 5.52735 3 5.02892V3C12.9411 3 21 11.0589 21 21H18.9711ZM6 19C6.55228 19 7 18.5523 7 18C7 17.4477 6.55228 17 6 17C5.44772 17 5 17.4477 5 18C5 18.5523 5.44772 19 6 19ZM6 21C4.34315 21 3 19.6569 3 18C3 16.3431 4.34315 15 6 15C7.65685 15 9 16.3431 9 18C9 19.6569 7.65685 21 6 21ZM3 10.0411C8.8298 10.522 13.478 15.1702 13.9589 21H16C16 13.8203 10.1797 8 3 8V10.0411Z" fill="black"/>
</svg>
