<svg width="24" height="24" viewBox="0 0 24 24" fill="none" xmlns="http://www.w3.org/2000/svg">
<path fill-rule="evenodd" clip-rule="evenodd" d="M16 2H6C4.89543 2 4 2.89543 4 4V20C4 21.1046 4.89543 22 6 22H18C19.1046 22 20 21.1046 20 20V6L16 2ZM6 4H15.1716V6.82843H18V20H6V4ZM15 14.0854V11H11V16.5C11 17.3284 10.3284 18 9.5 18C8.67157 18 8 17.3284 8 16.5C8 15.6716 8.67157 15 9.5 15C9.67532 15 9.84361 15.0301 10 15.0854V10C10 9.44772 10.4477 9 11 9H15C15.5523 9 16 9.44772 16 10V15.5C16 16.3284 15.3284 17 14.5 17C13.6716 17 13 16.3284 13 15.5C13 14.6716 13.6716 14 14.5 14C14.6753 14 14.8436 14.0301 15 14.0854Z" fill="black"/>
</svg>
