<svg width="24" height="24" viewBox="0 0 24 24" fill="none" xmlns="http://www.w3.org/2000/svg">
<path fill-rule="evenodd" clip-rule="evenodd" d="M9 12V7.82929C10.1652 7.41746 11 6.30622 11 5C11 3.34315 9.65685 2 8 2C6.34315 2 5 3.34315 5 5C5 6.30622 5.83481 7.41746 7 7.82929V16.1707C5.83481 16.5825 5 17.6938 5 19C5 20.6569 6.34315 22 8 22C9.65685 22 11 20.6569 11 19C11 17.6938 10.1652 16.5825 9 16.1707V14H12C14.7614 14 17 11.7614 17 9V7.82929C18.1652 7.41746 19 6.30622 19 5C19 3.34315 17.6569 2 16 2C14.3431 2 13 3.34315 13 5C13 6.30622 13.8348 7.41746 15 7.82929V9C15 10.6569 13.6569 12 12 12H9ZM9 19C9 19.5523 8.55228 20 8 20C7.44772 20 7 19.5523 7 19C7 18.4477 7.44772 18 8 18C8.55228 18 9 18.4477 9 19ZM16 6C16.5523 6 17 5.55228 17 5C17 4.44772 16.5523 4 16 4C15.4477 4 15 4.44772 15 5C15 5.55228 15.4477 6 16 6ZM9 5C9 5.55228 8.55228 6 8 6C7.44772 6 7 5.55228 7 5C7 4.44772 7.44772 4 8 4C8.55228 4 9 4.44772 9 5Z" fill="black"/>
</svg>
