<svg width="24" height="24" viewBox="0 0 24 24" fill="none" xmlns="http://www.w3.org/2000/svg">
<path fill-rule="evenodd" clip-rule="evenodd" d="M4.07163 7.3352C4.02465 7.43187 4 7.54061 4 7.65117V16.349C4 16.7085 4.25521 17 4.57003 17C4.66683 17 4.76203 16.9718 4.84667 16.9182L11.7065 12.5693C11.894 12.4505 11.9998 12.2287 12 12.0001V16.349C12 16.7085 12.2552 17 12.57 17C12.6668 17 12.762 16.9718 12.8467 16.9182L19.7065 12.5693C19.9818 12.3948 20.0811 11.9985 19.9283 11.6841C19.8765 11.5777 19.7997 11.4899 19.7065 11.4308L12.8467 7.08193C12.5714 6.90743 12.2244 7.02082 12.0716 7.3352C12.0247 7.43187 12 7.54061 12 7.65117V11.9988C11.9999 11.8922 11.9768 11.784 11.9283 11.6841C11.8765 11.5777 11.7997 11.4899 11.7065 11.4308L4.84667 7.08193C4.57141 6.90743 4.22442 7.02082 4.07163 7.3352Z" fill="black"/>
</svg>
