<svg width="24" height="24" viewBox="0 0 24 24" fill="none" xmlns="http://www.w3.org/2000/svg">
<path fill-rule="evenodd" clip-rule="evenodd" d="M14 20C14 19.2597 13.5978 18.6134 13 18.2676V15.9291C16.3923 15.4439 19 12.5265 19 9C19 5.13401 15.866 2 12 2C8.13401 2 5 5.13401 5 9C5 12.5265 7.60771 15.4439 11 15.9291V18.2676C10.4022 18.6134 10 19.2597 10 20C10 21.1046 10.8954 22 12 22C13.1046 22 14 21.1046 14 20ZM17 9C17 11.7614 14.7614 14 12 14C9.23858 14 7 11.7614 7 9C7 6.23858 9.23858 4 12 4C14.7614 4 17 6.23858 17 9Z" fill="black"/>
</svg>
