<svg width="24" height="24" viewBox="0 0 24 24" fill="none" xmlns="http://www.w3.org/2000/svg">
<path fill-rule="evenodd" clip-rule="evenodd" d="M12.9996 15H11.0004C10.0882 16.2144 8.63582 17 7 17C4.23858 17 2 14.7614 2 12C2 9.23858 4.23858 7 7 7H17C19.7614 7 22 9.23858 22 12C22 14.7614 19.7614 17 17 17C15.3642 17 13.9118 16.2144 12.9996 15ZM8 11H9C9.55228 11 10 11.4477 10 12C10 12.5523 9.55228 13 9 13H8V14C8 14.5523 7.55228 15 7 15C6.44772 15 6 14.5523 6 14V13H5C4.44772 13 4 12.5523 4 12C4 11.4477 4.44772 11 5 11H6V10C6 9.44772 6.44772 9 7 9C7.55228 9 8 9.44772 8 10V11ZM18 10C18 10.5523 17.5523 11 17 11C16.4477 11 16 10.5523 16 10C16 9.44772 16.4477 9 17 9C17.5523 9 18 9.44772 18 10ZM16 14C16.5523 14 17 13.5523 17 13C17 12.4477 16.5523 12 16 12C15.4477 12 15 12.4477 15 13C15 13.5523 15.4477 14 16 14ZM20 12C20 12.5523 19.5523 13 19 13C18.4477 13 18 12.5523 18 12C18 11.4477 18.4477 11 19 11C19.5523 11 20 11.4477 20 12Z" fill="black"/>
</svg>
