<svg width="24" height="24" viewBox="0 0 24 24" fill="none" xmlns="http://www.w3.org/2000/svg">
<path fill-rule="evenodd" clip-rule="evenodd" d="M7.09436 18.3199C8.20088 19.18 9.53929 19.756 11 19.9381V22H13V19.9381C14.4607 19.756 15.7991 19.18 16.9056 18.3199L18.364 19.7782L19.7782 18.364L18.3199 16.9056C19.18 15.7991 19.756 14.4607 19.9381 13H22V11H19.9381C19.756 9.53929 19.18 8.20088 18.3199 7.09436L19.7782 5.63604L18.364 4.22183L16.9056 5.68014C15.7991 4.81999 14.4607 4.24404 13 4.06189V2H11V4.06189C9.53929 4.24404 8.20088 4.81999 7.09436 5.68014L5.63604 4.22183L4.22183 5.63604L5.68014 7.09436C4.81999 8.20088 4.24404 9.53929 4.06189 11H2V13H4.06189C4.24404 14.4607 4.81999 15.7991 5.68014 16.9056L4.22183 18.364L5.63604 19.7782L7.09436 18.3199ZM17 12C17 14.7614 14.7614 17 12 17C9.23858 17 7 14.7614 7 12C7 9.23858 9.23858 7 12 7C14.7614 7 17 9.23858 17 12Z" fill="black"/>
</svg>
