<svg width="24" height="24" viewBox="0 0 24 24" fill="none" xmlns="http://www.w3.org/2000/svg">
<path fill-rule="evenodd" clip-rule="evenodd" d="M19 20V12C20.1046 12 21 11.1046 21 10V8C21 6.89543 20.1046 6 19 6H17.8293C17.9398 5.68722 18 5.35064 18 5C18 3.34315 16.6569 2 15 2C13.3431 2 12 3.34315 12 5C12 3.34315 10.6569 2 9 2C7.34315 2 6 3.34315 6 5C6 5.35064 6.06015 5.68722 6.17071 6H5C3.89543 6 3 6.89543 3 8V10C3 11.1046 3.89543 12 5 12V20C5 21.1046 5.89543 22 7 22H17C18.1046 22 19 21.1046 19 20ZM11 10V8H5V10H11ZM13 10V8H19V10H13ZM7 20V12H17V20H7ZM9 6H10V5C10 4.44772 9.55228 4 9 4C8.44772 4 8 4.44772 8 5C8 5.55228 8.44772 6 9 6ZM16 5C16 5.55228 15.5523 6 15 6H14V5C14 4.44772 14.4477 4 15 4C15.5523 4 16 4.44772 16 5Z" fill="black"/>
</svg>
