<svg width="24" height="24" viewBox="0 0 24 24" fill="none" xmlns="http://www.w3.org/2000/svg">
<path fill-rule="evenodd" clip-rule="evenodd" d="M21.6226 11.1091L12.8905 2.37725C12.3877 1.87425 11.5721 1.87425 11.0689 2.37725L9.25586 4.19075L11.5558 6.49093C12.0904 6.31028 12.7033 6.43151 13.1295 6.85746C13.5578 7.28624 13.678 7.90438 13.4927 8.4409L15.7098 10.6577C16.2463 10.4727 16.8649 10.5922 17.2932 11.0214C17.8918 11.6198 17.8918 12.5898 17.2932 13.1886C16.6942 13.7876 15.7243 13.7876 15.1251 13.1886C14.675 12.7381 14.5636 12.0764 14.7919 11.5218L12.7242 9.45431V14.895C12.87 14.9673 13.0078 15.0635 13.1295 15.1847C13.728 15.7833 13.728 16.7532 13.1295 17.3526C12.5309 17.9509 11.5604 17.9509 10.9621 17.3526C10.3635 16.7532 10.3635 15.7833 10.9621 15.1847C11.1101 15.0369 11.2814 14.9251 11.4642 14.8502V9.35919C11.2814 9.28454 11.1105 9.17353 10.9621 9.02487C10.5087 8.57171 10.3996 7.90613 10.6323 7.34936L8.36478 5.08162L2.37709 11.0687C1.8743 11.5721 1.8743 12.3876 2.37709 12.8906L11.1096 21.6225C11.6124 22.1253 12.4277 22.1253 12.9312 21.6225L21.6226 12.9311C22.1258 12.4281 22.1258 11.6121 21.6226 11.1091Z" fill="black"/>
</svg>
