<svg width="24" height="24" viewBox="0 0 24 24" fill="none" xmlns="http://www.w3.org/2000/svg">
<path fill-rule="evenodd" clip-rule="evenodd" d="M20.375 8.17401C20.5375 7.77401 21.0625 6.18651 20.2125 4.03651C20.2125 4.03651 18.9 3.62401 15.9125 5.66151C14.6625 5.31151 13.325 5.26151 12 5.26151C10.675 5.26151 9.3375 5.31151 8.0875 5.66151C5.1 3.61151 3.7875 4.03651 3.7875 4.03651C2.9375 6.18651 3.4625 7.77401 3.625 8.17401C2.6125 9.26151 2 10.6615 2 12.3615C2 18.799 6.1625 20.249 11.975 20.249C17.7875 20.249 22 18.799 22 12.3615C22 10.6615 21.3875 9.26151 20.375 8.17401ZM12 19.024C7.875 19.024 4.525 18.8365 4.525 14.8365C4.525 13.8865 5 12.9865 5.8 12.249C7.1375 11.024 9.425 11.674 12 11.674C14.5875 11.674 16.85 11.024 18.2 12.249C19.0125 12.9865 19.475 13.874 19.475 14.8365C19.475 18.824 16.125 19.024 12 19.024ZM8.8625 12.7615C8.0375 12.7615 7.3625 13.7615 7.3625 14.9865C7.3625 16.2115 8.0375 17.224 8.8625 17.224C9.6875 17.224 10.3625 16.224 10.3625 14.9865C10.3625 13.749 9.6875 12.7615 8.8625 12.7615ZM15.1375 12.7615C14.3125 12.7615 13.6375 13.749 13.6375 14.9865C13.6375 16.224 14.3125 17.224 15.1375 17.224C15.9625 17.224 16.6375 16.224 16.6375 14.9865C16.6375 13.749 15.975 12.7615 15.1375 12.7615Z" fill="black"/>
</svg>
