<svg width="24" height="24" viewBox="0 0 24 24" fill="none" xmlns="http://www.w3.org/2000/svg">
<path fill-rule="evenodd" clip-rule="evenodd" d="M2 12C2 6.47715 6.47715 2 12 2C17.5228 2 22 6.47715 22 12C22 17.5228 17.5228 22 12 22C6.47715 22 2 17.5228 2 12ZM4 12C4 7.58172 7.58172 4 12 4C16.4183 4 20 7.58172 20 12C20 16.4183 16.4183 20 12 20C7.58172 20 4 16.4183 4 12ZM8.5124 9.78517C8.4159 10.0482 8.32646 10.2919 8.25191 10.4477C8.00907 10.9553 8.40421 11.2333 8.75 11.4051C9.09578 11.5768 10.1541 10.2308 10.1541 10.2308L11.375 11.125C11.375 11.125 11.5529 12.6076 11.8901 12.875C12.2272 13.1424 12.907 13.1424 12.907 13.1424L14.1865 13.7308C14.1865 13.7308 13.9036 14.3008 14 14.625C14.0964 14.9492 14.5766 15.4808 14.5766 15.4808C14.5766 15.4808 13.6426 17.495 14 18.125H14.875C15.244 18.125 17.5885 15.2029 17.5 14.625C17.4115 14.0471 14.5766 13.5867 14.5766 13.5867C14.5766 13.5867 13.6552 13.2218 13.3001 12.8558C13.125 12.7068 13.3001 12.3827 13.3001 12.3827C13.3001 12.3827 13.713 12.5531 14.0081 12.3827C14.3033 12.2122 15.244 11.2599 15.244 11.2599C15.244 11.2599 15.4424 11.5584 15.75 11.125C16.0576 10.6916 15.3999 9.73282 14.875 9.74199C14.2848 9.75115 14.0082 10.6287 14.0082 10.6287L13.0643 10.0624C13.0643 10.0624 14.0291 9.78599 14.0081 9.375C13.9872 8.96401 13.4094 8.32794 12.9847 8.5C12.5601 8.67206 12.907 9.1982 12.907 9.1982C12.25 9.375 11.5389 9.1982 11.5389 9.1982C11.5389 9.1982 10.8806 8.82889 10.2782 8.89612C9.9152 8.93664 9.83118 9.08906 9.7743 9.19226C9.7368 9.26029 9.71109 9.30693 9.625 9.286C9.50144 9.25598 9.46117 9.07427 9.42103 8.89313C9.37739 8.69623 9.33391 8.5 9.18375 8.5C8.98398 8.5 8.73021 9.19159 8.5124 9.78517ZM14.8223 8.35001C13.9777 8.35001 11.9467 7.27647 12.2883 6.69936C12.2883 5.87404 14.4227 5.99826 14.8809 5.99826C15.3392 5.99826 16.4604 6.35233 17.0835 6.84769C17.7067 7.34304 16.8214 8.05066 16.5117 8.35001C16.202 8.64935 15.667 8.35001 14.8223 8.35001Z" fill="black"/>
</svg>
