<svg width="24" height="24" viewBox="0 0 24 24" fill="none" xmlns="http://www.w3.org/2000/svg">
<path fill-rule="evenodd" clip-rule="evenodd" d="M8.36364 13.6364V11.4545H14.3727C14.4273 11.7727 14.4727 12.0909 14.4727 12.5091C14.4727 16.1455 12.0364 18.7273 8.36364 18.7273C4.84545 18.7273 2 15.8818 2 12.3636C2 8.84545 4.84545 6 8.36364 6C10.0818 6 11.5182 6.62727 12.6273 7.66364L10.9 9.32727C10.4273 8.87273 9.6 8.34545 8.36364 8.34545C6.19091 8.34545 4.41818 10.1455 4.41818 12.3636C4.41818 14.5818 6.19091 16.3818 8.36364 16.3818C10.8818 16.3818 11.8273 14.5727 11.9727 13.6364H8.36364ZM20.1818 11.4545H22V13.2727H20.1818V15.0909H18.3636V13.2727H16.5455V11.4545H18.3636V9.63636H20.1818V11.4545Z" fill="black"/>
</svg>
