<svg width="24" height="24" viewBox="0 0 24 24" fill="none" xmlns="http://www.w3.org/2000/svg">
<path fill-rule="evenodd" clip-rule="evenodd" d="M10 15H14V9H10V15ZM10 17V20C10 20.5523 9.55228 21 9 21C8.44772 21 8 20.5523 8 20V17H5C4.44772 17 4 16.5523 4 16C4 15.4477 4.44772 15 5 15H8V9H5C4.44772 9 4 8.55228 4 8C4 7.44772 4.44772 7 5 7H8V4C8 3.44772 8.44772 3 9 3C9.55228 3 10 3.44772 10 4V7H14V4C14 3.44772 14.4477 3 15 3C15.5523 3 16 3.44772 16 4V7H19C19.5523 7 20 7.44772 20 8C20 8.55228 19.5523 9 19 9H16V15H19C19.5523 15 20 15.4477 20 16C20 16.5523 19.5523 17 19 17H16V20C16 20.5523 15.5523 21 15 21C14.4477 21 14 20.5523 14 20V17H10Z" fill="black"/>
</svg>
