<svg width="24" height="24" viewBox="0 0 24 24" fill="none" xmlns="http://www.w3.org/2000/svg">
<path fill-rule="evenodd" clip-rule="evenodd" d="M3 9C3 15.76 9.79485 19.5208 12 20C14.2051 19.5208 21 15.76 21 9C21 6.23858 18.7614 4 16 4C14.3644 4 12.9122 4.78534 12 5.99951C11.0878 4.78534 9.6356 4 8 4C5.23858 4 3 6.23858 3 9ZM19 9C19 13.1953 15.1202 17.0695 12 18C8.87984 17.0695 5 13.1953 5 9C5 7.34315 6.34315 6 8 6C9.9572 6 12 8.5 12 8.5C12 8.5 14.0428 6 16 6C17.6569 6 19 7.34315 19 9Z" fill="black"/>
</svg>
