<svg width="24" height="24" viewBox="0 0 24 24" fill="none" xmlns="http://www.w3.org/2000/svg">
<path fill-rule="evenodd" clip-rule="evenodd" d="M2 12C2 14.7614 4.23858 17 7 17H11V15H7C5.34315 15 4 13.6569 4 12C4 10.3431 5.34315 9 7 9H11V7H7C4.23858 7 2 9.23858 2 12ZM13 17V15H17C18.6569 15 20 13.6569 20 12C20 10.3431 18.6569 9 17 9H13V7H17C19.7614 7 22 9.23858 22 12C22 14.7614 19.7614 17 17 17H13ZM15 11H9C8.44772 11 8 11.4477 8 12C8 12.5523 8.44772 13 9 13H15C15.5523 13 16 12.5523 16 12C16 11.4477 15.5523 11 15 11Z" fill="black"/>
</svg>
