<svg width="24" height="24" viewBox="0 0 24 24" fill="none" xmlns="http://www.w3.org/2000/svg">
<path fill-rule="evenodd" clip-rule="evenodd" d="M12 2C9.28416 2 8.94358 2.01151 7.87701 2.06018C6.81259 2.10872 6.08569 2.27779 5.44958 2.52501C4.79203 2.78052 4.23432 3.12246 3.67839 3.67839C3.12246 4.23436 2.78052 4.79203 2.52497 5.44962C2.27775 6.08569 2.10872 6.81263 2.06014 7.87701C2.01147 8.94362 2 9.28412 2 12C2 14.7158 2.01147 15.0564 2.06014 16.123C2.10872 17.1874 2.27775 17.9143 2.52497 18.5504C2.78052 19.2079 3.12246 19.7656 3.67839 20.3216C4.23432 20.8775 4.79203 21.2194 5.44958 21.475C6.08569 21.7222 6.81259 21.8913 7.87701 21.9399C8.94358 21.9885 9.28416 22 12 22C14.7158 22 15.0563 21.9885 16.1229 21.9399C17.1874 21.8913 17.9143 21.7222 18.5504 21.475C19.208 21.2194 19.7656 20.8775 20.3216 20.3216C20.8775 19.7656 21.2194 19.208 21.475 18.5504C21.7222 17.9143 21.8913 17.1874 21.9398 16.123C21.9885 15.0564 22 14.7158 22 12C22 9.28416 21.9885 8.94362 21.9398 7.87701C21.8913 6.81263 21.7222 6.08569 21.475 5.44962C21.2194 4.79203 20.8775 4.23436 20.3216 3.67839C19.7656 3.12246 19.208 2.78052 18.5504 2.52501C17.9143 2.27779 17.1874 2.10872 16.1229 2.06018C15.0563 2.01151 14.7158 2 12 2ZM12 3.8018C14.6701 3.8018 14.9864 3.81196 16.0408 3.86007C17.0158 3.90457 17.5453 4.06748 17.8977 4.20443C18.3644 4.38583 18.6976 4.60253 19.0475 4.95244C19.3974 5.30239 19.6141 5.63551 19.7956 6.10229C19.9325 6.45466 20.0954 6.98419 20.1399 7.95914C20.188 9.0136 20.1982 9.32989 20.1982 12C20.1982 14.6701 20.188 14.9864 20.1399 16.0408C20.0954 17.0158 19.9325 17.5453 19.7956 17.8977C19.6141 18.3644 19.3974 18.6976 19.0475 19.0475C18.6976 19.3975 18.3644 19.6142 17.8977 19.7956C17.5453 19.9325 17.0158 20.0954 16.0408 20.1399C14.9865 20.188 14.6703 20.1982 12 20.1982C9.32965 20.1982 9.01344 20.188 7.95914 20.1399C6.98415 20.0954 6.45462 19.9325 6.10225 19.7956C5.63551 19.6142 5.30235 19.3975 4.95248 19.0475C4.60253 18.6976 4.38579 18.3644 4.20439 17.8977C4.06748 17.5453 3.90457 17.0158 3.86007 16.0409C3.81196 14.9864 3.8018 14.6701 3.8018 12C3.8018 9.32989 3.81196 9.0136 3.86007 7.95914C3.90457 6.98419 4.06748 6.45466 4.20439 6.10229C4.38579 5.63551 4.60253 5.30239 4.95244 4.95248C5.30235 4.60253 5.63551 4.38583 6.10225 4.20443C6.45462 4.06748 6.98415 3.90457 7.9591 3.86007C9.0136 3.81196 9.32985 3.8018 12 3.8018ZM12 15.3333C10.159 15.3333 8.66663 13.8409 8.66663 12C8.66663 10.159 10.159 8.66667 12 8.66667C13.8409 8.66667 15.3333 10.159 15.3333 12C15.3333 13.8409 13.8409 15.3333 12 15.3333ZM12 6.86487C9.16393 6.86487 6.86483 9.16393 6.86483 12C6.86483 14.8361 9.16393 17.1351 12 17.1351C14.836 17.1351 17.1351 14.8361 17.1351 12C17.1351 9.16393 14.836 6.86487 12 6.86487ZM18.538 6.66198C18.538 7.32473 18.0008 7.86196 17.338 7.86196C16.6753 7.86196 16.138 7.32473 16.138 6.66198C16.138 5.99923 16.6753 5.46196 17.338 5.46196C18.0008 5.46196 18.538 5.99923 18.538 6.66198Z" fill="black"/>
</svg>
