<svg width="24" height="24" viewBox="0 0 24 24" fill="none" xmlns="http://www.w3.org/2000/svg">
<path fill-rule="evenodd" clip-rule="evenodd" d="M22 11H11.9C11.4367 8.71776 9.41896 7 7 7C4.23858 7 2 9.23858 2 12C2 14.7614 4.23858 17 7 17C9.41896 17 11.4367 15.2822 11.9 13H16V15C16 15.55 16.45 16 17 16C17.55 16 18 15.55 18 15V13H20V15.0037C20 15.55 20.45 16 21 16C21.55 16 22 15.55 22 15.0037V11ZM10 12C10 13.6569 8.65685 15 7 15C5.34315 15 4 13.6569 4 12C4 10.3431 5.34315 9 7 9C8.65685 9 10 10.3431 10 12Z" fill="black"/>
</svg>
