<svg width="24" height="24" viewBox="0 0 24 24" fill="none" xmlns="http://www.w3.org/2000/svg">
<path fill-rule="evenodd" clip-rule="evenodd" d="M2 8C2 6.89543 2.89543 6 4 6H20C21.1046 6 22 6.89543 22 8V16C22 17.1046 21.1046 18 20 18H4C2.89543 18 2 17.1046 2 16V8ZM17 14H20V16H17V14ZM16 16V14H14V16H16ZM7 14H13V16H7V14ZM6 14H4V16H6V14ZM18 11H20V13H18V11ZM17 13V11H15V13H17ZM12 11H14V13H12V11ZM11 11H9V13H11V11ZM4 11H8V13H4V11ZM20 8H16V10H20V8ZM13 8H15V10H13V8ZM12 8H10V10H12V8ZM7 8H9V10H7V8ZM6 8H4V10H6V8Z" fill="black"/>
</svg>
