<svg width="24" height="24" viewBox="0 0 24 24" fill="none" xmlns="http://www.w3.org/2000/svg">
<path fill-rule="evenodd" clip-rule="evenodd" d="M4.26756 20H4C2.89543 20 2 19.1046 2 18V6C2 4.89543 2.89543 4 4 4H20C21.1046 4 22 4.89543 22 6V18C22 19.1046 21.1046 20 20 20H19.7324C19.3866 20.5978 18.7403 21 18 21C17.2597 21 16.6134 20.5978 16.2676 20H7.73244C7.38663 20.5978 6.74028 21 6 21C5.25972 21 4.61337 20.5978 4.26756 20ZM4 6V18H20V6H4ZM18 12H6V16H18V12ZM6 8H11V10H6V8ZM14 13H10V14H14V13ZM14 10C14.5523 10 15 9.55228 15 9C15 8.44772 14.5523 8 14 8C13.4477 8 13 8.44772 13 9C13 9.55228 13.4477 10 14 10ZM18 9C18 9.55228 17.5523 10 17 10C16.4477 10 16 9.55228 16 9C16 8.44772 16.4477 8 17 8C17.5523 8 18 8.44772 18 9Z" fill="black"/>
</svg>
