<svg width="24" height="24" viewBox="0 0 24 24" fill="none" xmlns="http://www.w3.org/2000/svg">
<path fill-rule="evenodd" clip-rule="evenodd" d="M20.4821 7.19233L12.4888 3.11627C12.1848 2.96124 11.8152 2.96124 11.5112 3.11627L3.51793 7.19233C3.35362 7.27612 3.21814 7.40047 3.12686 7.55129C2.85687 7.99736 3.03196 8.55986 3.51793 8.80767L11.5112 12.8837C11.8152 13.0388 12.1848 13.0388 12.4888 12.8837L20.4821 8.80767C20.6464 8.72388 20.7819 8.59953 20.8731 8.44871C21.1431 8.00264 20.968 7.44014 20.4821 7.19233ZM12 11L6 8L12 5L18 8L12 11ZM11.5112 16.8817L3.51793 12.7354C3.03196 12.4833 2.85687 11.9111 3.12686 11.4573C3.21814 11.3039 3.35362 11.1774 3.51793 11.0922C3.75486 10.9693 4.03533 10.9693 4.27226 11.0922L11.5112 14.8472C11.8152 15.0049 12.1848 15.0049 12.4888 14.8472L19.7277 11.0922C19.9647 10.9693 20.2451 10.9693 20.4821 11.0922C20.968 11.3443 21.1431 11.9165 20.8731 12.3702C20.7819 12.5236 20.6464 12.6501 20.4821 12.7354L12.4888 16.8817C12.1848 17.0394 11.8152 17.0394 11.5112 16.8817ZM3.51793 16.7354L11.5112 20.8817C11.8152 21.0394 12.1848 21.0394 12.4888 20.8817L20.4821 16.7354C20.6464 16.6501 20.7819 16.5236 20.8731 16.3702C21.1431 15.9165 20.968 15.3443 20.4821 15.0922C20.2451 14.9693 19.9647 14.9693 19.7277 15.0922L12.4888 18.8472C12.1848 19.0049 11.8152 19.0049 11.5112 18.8472L4.27226 15.0922C4.03533 14.9693 3.75486 14.9693 3.51793 15.0922C3.35362 15.1774 3.21814 15.3039 3.12686 15.4573C2.85687 15.9111 3.03196 16.4833 3.51793 16.7354Z" fill="black"/>
</svg>
