<svg width="24" height="24" viewBox="0 0 24 24" fill="none" xmlns="http://www.w3.org/2000/svg">
<path fill-rule="evenodd" clip-rule="evenodd" d="M5.82325 14.1768C5.93679 14.4278 6 14.7065 6 15C6 16.1046 5.10457 17 4 17C2.89543 17 2 16.1046 2 15C2 13.8954 2.89543 13 4 13C4.29347 13 4.57218 13.0632 4.82325 13.1768L7.17675 10.8232C7.06321 10.5722 7 10.2935 7 10C7 8.89543 7.89543 8 9 8C10.1046 8 11 8.89543 11 10C11 10.2935 10.9368 10.5722 10.8232 10.8232L13.1768 13.1768C13.4278 13.0632 13.7065 13 14 13C14.2935 13 14.5722 13.0632 14.8232 13.1768L18.1768 9.82325C18.0632 9.57218 18 9.29347 18 9C18 7.89543 18.8954 7 20 7C21.1046 7 22 7.89543 22 9C22 10.1046 21.1046 11 20 11C19.7065 11 19.4278 10.9368 19.1768 10.8232L15.8232 14.1768C15.9368 14.4278 16 14.7065 16 15C16 16.1046 15.1046 17 14 17C12.8954 17 12 16.1046 12 15C12 14.7065 12.0632 14.4278 12.1768 14.1768L9.82325 11.8232C9.57218 11.9368 9.29347 12 9 12C8.70653 12 8.42782 11.9368 8.17675 11.8232L5.82325 14.1768Z" fill="black"/>
</svg>
