<svg width="24" height="24" viewBox="0 0 24 24" fill="none" xmlns="http://www.w3.org/2000/svg">
<path fill-rule="evenodd" clip-rule="evenodd" d="M11.874 11H12.126C12.5701 9.27477 14.1362 8 16 8H18C20.2091 8 22 9.79086 22 12C22 14.2091 20.2091 16 18 16H16C14.1362 16 12.5701 14.7252 12.126 13H11.874C11.4299 14.7252 9.86384 16 8 16H6C3.79086 16 2 14.2091 2 12C2 9.79086 3.79086 8 6 8H8C9.86384 8 11.4299 9.27477 11.874 11ZM9.75025 11.0314C9.31881 11.1424 9 11.534 9 12C9 12.466 9.31881 12.8576 9.75025 12.9686C9.40913 13.5837 8.75319 14 8 14H6C4.89543 14 4 13.1046 4 12C4 10.8954 4.89543 10 6 10H8C8.75319 10 9.40913 10.4163 9.75025 11.0314ZM14.7502 12C14.7502 12.466 14.4314 12.8576 14 12.9686C14.3411 13.5837 14.9971 14 15.7502 14H17.7502C18.8548 14 19.7502 13.1046 19.7502 12C19.7502 10.8954 18.8548 10 17.7502 10H15.7502C14.9971 10 14.3411 10.4163 14 11.0314C14.4314 11.1424 14.7502 11.534 14.7502 12Z" fill="black"/>
</svg>
