<svg width="24" height="24" viewBox="0 0 24 24" fill="none" xmlns="http://www.w3.org/2000/svg">
<path fill-rule="evenodd" clip-rule="evenodd" d="M4 3.5C4 3.77614 4.22386 4 4.5 4L5 4.01485V6.5C5 6.77614 5.22386 7 5.5 7C5.77614 7 6 6.77614 6 6.5V3.5C6 3.22 5.78 3 5.5 3H4.5C4.22386 3 4 3.22386 4 3.5ZM20 4H10C9.44772 4 9 4.44772 9 5C9 5.55228 9.44772 6 10 6H20C20.5523 6 21 5.55228 21 5C21 4.44772 20.5523 4 20 4ZM20 11H10C9.44772 11 9 11.4477 9 12C9 12.5523 9.44772 13 10 13H20C20.5523 13 21 12.5523 21 12C21 11.4477 20.5523 11 20 11ZM10 18H20C20.5523 18 21 18.4477 21 19C21 19.5523 20.5523 20 20 20H10C9.44772 20 9 19.5523 9 19C9 18.4477 9.44772 18 10 18ZM6.5 10C6.78 10 7 10.22 7 10.5V11L5.3 13H6.5C6.78 13 7 13.22 7 13.5C7 13.78 6.77558 14 6.5 14H4.5C4.22 14 4 13.78 4 13.5V13L5.7 11H4.5C4.22 11 4 10.78 4 10.5C4 10.22 4.19889 10 4.5 10H6.5ZM4 20.5C4 20.7761 4.22386 21 4.5 21H6.5C6.77614 21 7 20.7761 7 20.5V17.5C7 17.2239 6.77614 17 6.5 17H4.5C4.22386 17 4 17.2239 4 17.5C4 17.7761 4.22386 18 4.5 18H6V18.5H4.5C4.22386 18.5 4 18.7239 4 19C4 19.2761 4.22386 19.5 4.5 19.5H6V20H4.5C4.22386 20 4 20.2239 4 20.5Z" fill="black"/>
</svg>
