<svg width="24" height="24" viewBox="0 0 24 24" fill="none" xmlns="http://www.w3.org/2000/svg">
<path fill-rule="evenodd" clip-rule="evenodd" d="M7 5C7 6.10457 6.10457 7 5 7C3.89543 7 3 6.10457 3 5C3 3.89543 3.89543 3 5 3C6.10457 3 7 3.89543 7 5ZM20 4H10C9.44772 4 9 4.44772 9 5C9 5.55228 9.44772 6 10 6H20C20.5523 6 21 5.55228 21 5C21 4.44772 20.5523 4 20 4ZM20 11H10C9.44772 11 9 11.4477 9 12C9 12.5523 9.44772 13 10 13H20C20.5523 13 21 12.5523 21 12C21 11.4477 20.5523 11 20 11ZM10 18H20C20.5523 18 21 18.4477 21 19C21 19.5523 20.5523 20 20 20H10C9.44772 20 9 19.5523 9 19C9 18.4477 9.44772 18 10 18ZM5 14C6.10457 14 7 13.1046 7 12C7 10.8954 6.10457 10 5 10C3.89543 10 3 10.8954 3 12C3 13.1046 3.89543 14 5 14ZM7 19C7 20.1046 6.10457 21 5 21C3.89543 21 3 20.1046 3 19C3 17.8954 3.89543 17 5 17C6.10457 17 7 17.8954 7 19Z" fill="black"/>
</svg>
