<svg width="24" height="24" viewBox="0 0 24 24" fill="none" xmlns="http://www.w3.org/2000/svg">
<path fill-rule="evenodd" clip-rule="evenodd" d="M4 7.17157L7.74264 10.9142L14.2426 4.41421L12.8284 3L7.74264 8.08579L5.41421 5.75736L4 7.17157ZM14 10C14 9.44772 14.4477 9 15 9H19C19.5523 9 20 9.44772 20 10C20 10.5523 19.5523 11 19 11H15C14.4477 11 14 10.5523 14 10ZM9 13C8.44772 13 8 13.4477 8 14C8 14.5523 8.44771 15 9 15H19C19.5523 15 20 14.5523 20 14C20 13.4477 19.5523 13 19 13H9ZM9 17C8.44772 17 8 17.4477 8 18C8 18.5523 8.44771 19 9 19H19C19.5523 19 20 18.5523 20 18C20 17.4477 19.5523 17 19 17H9Z" fill="black"/>
</svg>
