<svg width="24" height="24" viewBox="0 0 24 24" fill="none" xmlns="http://www.w3.org/2000/svg">
<path fill-rule="evenodd" clip-rule="evenodd" d="M12 21C8.68629 21 6 12.8616 6 9.35294C6 5.84431 8.68629 3 12 3C15.3137 3 18 5.84431 18 9.35294C18 12.8616 15.3137 21 12 21ZM12 19C12.4366 19 13.4785 17.813 14.4114 15.6882C15.3571 13.5341 16 10.8736 16 9.35294C16 6.92413 14.1828 5 12 5C9.81723 5 8 6.92413 8 9.35294C8 10.8736 8.64292 13.5341 9.58865 15.6882C10.5215 17.813 11.5634 19 12 19ZM14 9C14 10.1046 13.1046 11 12 11C10.8954 11 10 10.1046 10 9C10 7.89543 10.8954 7 12 7C13.1046 7 14 7.89543 14 9Z" fill="black"/>
</svg>
