<svg width="24" height="24" viewBox="0 0 24 24" fill="none" xmlns="http://www.w3.org/2000/svg">
<path fill-rule="evenodd" clip-rule="evenodd" d="M3 7C3.55228 7 4 7.44772 4 8L4.03984 10.1169L19.4992 6.06511C19.6642 6.02188 19.8339 6 20.0044 6C21.1066 6 22 6.89483 22 7.99867V16.0008C22 16.1716 21.9782 16.3416 21.935 16.5068C21.656 17.5747 20.5654 18.2139 19.4992 17.9344L4 13.8826V16C4 16.5523 3.55228 17 3 17C2.44772 17 2 16.5523 2 16V8C2 7.44772 2.44772 7 3 7ZM6 12.3444V11.6641L20 8.00049V16L6 12.3444Z" fill="black"/>
</svg>
