<svg width="24" height="24" viewBox="0 0 24 24" fill="none" xmlns="http://www.w3.org/2000/svg">
<path fill-rule="evenodd" clip-rule="evenodd" d="M17.5 15.5C19.433 15.5 21 13.933 21 12C21 7.02944 16.9706 3 12 3C7.02944 3 3 7.02944 3 12C3 16.9706 7.02944 21 12 21C14.6655 21 17.0604 19.8412 18.7083 18H15.6076C14.554 18.6348 13.3197 19 12 19C8.13401 19 5 15.866 5 12C5 8.13401 8.13401 5 12 5C15.866 5 19 8.13401 19 12C19 12.8284 18.3284 13.5 17.5 13.5C16.6716 13.5 16 12.8284 16 12V8H14V8.53513C13.4117 8.19479 12.7286 8 12 8C9.79086 8 8 9.79086 8 12C8 14.2091 9.79086 16 12 16C13.2451 16 14.3574 15.4311 15.091 14.539C15.7185 15.1346 16.5666 15.5 17.5 15.5ZM14 12C14 13.1046 13.1046 14 12 14C10.8954 14 10 13.1046 10 12C10 10.8954 10.8954 10 12 10C13.1046 10 14 10.8954 14 12Z" fill="black"/>
</svg>
