<svg width="24" height="24" viewBox="0 0 24 24" fill="none" xmlns="http://www.w3.org/2000/svg">
<path d="M13 17.8293V21C13 21.5523 12.5523 22 12 22C11.4477 22 11 21.5523 11 21V17.8293C9.83481 17.4175 9 16.3062 9 15C9 13.9565 9.53275 13.0375 10.3411 12.5C9.53275 11.9625 9 11.0435 9 10C9 8.95651 9.53275 8.03746 10.3411 7.5C9.53275 6.96254 9 6.04349 9 5C9 3.34315 10.3431 2 12 2C13.6569 2 15 3.34315 15 5C15 6.04349 14.4672 6.96254 13.6589 7.5C14.4672 8.03746 15 8.95651 15 10C15 11.0435 14.4672 11.9625 13.6589 12.5C14.4672 13.0375 15 13.9565 15 15C15 16.3062 14.1652 17.4175 13 17.8293Z" fill="black"/>
</svg>
