<svg width="24" height="24" viewBox="0 0 24 24" fill="none" xmlns="http://www.w3.org/2000/svg">
<path fill-rule="evenodd" clip-rule="evenodd" d="M4 5H20C21.1046 5 22 5.89543 22 7V17C22 18.1046 21.1046 19 20 19H4C2.89543 19 2 18.1046 2 17V7C2 5.89543 2.89543 5 4 5ZM18 7C18 8.10457 18.8954 9 20 9V15C18.8954 15 18 15.8954 18 17H6C6 15.8954 5.10457 15 4 15V9C5.10457 9 6 8.10457 6 7H18ZM10 9H8V15H10V9ZM14 13C14.5523 13 15 12.5523 15 12C15 11.4477 14.5523 11 14 11C13.4477 11 13 11.4477 13 12C13 12.5523 13.4477 13 14 13ZM11 12C11 13.6569 12.3431 15 14 15C15.6569 15 17 13.6569 17 12C17 10.3431 15.6569 9 14 9C12.3431 9 11 10.3431 11 12Z" fill="black"/>
</svg>
