<svg width="24" height="24" viewBox="0 0 24 24" fill="none" xmlns="http://www.w3.org/2000/svg">
<path fill-rule="evenodd" clip-rule="evenodd" d="M10.5639 6.65167C8.51297 7.64387 7.10845 9.66635 7.10845 12C7.10845 15.3137 9.94039 18 13.4338 18C14.1731 18 14.8814 17.8803 15.5395 17.6601C12.3914 15.9315 10.2711 12.7025 10.2711 9C10.2711 8.19198 10.3725 7.40543 10.5639 6.65167ZM11.5649 4.19711C7.8064 5.00368 5 8.19096 5 12C5 16.4183 8.77593 20 13.4338 20C15.4111 20 17.2296 19.3545 18.6676 18.2735C19.3247 17.7796 18.9336 16.8413 18.1385 16.5893C14.7918 15.5284 12.3796 12.5314 12.3796 9C12.3796 7.94474 12.595 6.9372 12.9863 6.01478C12.9953 5.99353 13.0044 5.97233 13.0136 5.95117C13.1373 5.66684 13.2777 5.39074 13.4338 5.12399C13.5336 4.95344 13.6397 4.78671 13.7519 4.62409C13.9328 4.36195 13.7641 4 13.4338 4C13.2153 4 12.9988 4.00788 12.7845 4.02335C12.4279 4.04911 12.0775 4.0959 11.7346 4.16242C11.6778 4.17345 11.6212 4.18501 11.5649 4.19711Z" fill="black"/>
</svg>
