<svg width="24" height="24" viewBox="0 0 24 24" fill="none" xmlns="http://www.w3.org/2000/svg">
<path fill-rule="evenodd" clip-rule="evenodd" d="M15.0846 4.85259C15.3699 3.78571 16.3432 3 17.5 3C18.8807 3 20 4.11929 20 5.5C20 6.82802 18.9645 7.91419 17.6569 7.99516C17.8791 8.62208 18 9.29692 18 10V16H19C19.55 16 20 16.45 20 17C20 17.55 19.55 18 19 18H15V19C15 20.6569 13.6569 22 12 22C10.3431 22 9 20.6569 9 19V18H5C4.45 18 4 17.55 4 17C4 16.45 4.45 16 5 16H6V10C6 7.027 8.16229 4.55904 11 4.08296V3C11 2.44772 11.4477 2 12 2C12.5523 2 13 2.44772 13 3V4.08296C13.7514 4.20903 14.4555 4.47477 15.0846 4.85259ZM12 20C12.5523 20 13 19.5523 13 19V18H11V19C11 19.5523 11.4477 20 12 20ZM16 10V16H8V10C8 7.79086 9.79086 6 12 6C14.2091 6 16 7.79086 16 10Z" fill="black"/>
</svg>
