<svg width="24" height="24" viewBox="0 0 24 24" fill="none" xmlns="http://www.w3.org/2000/svg">
<path fill-rule="evenodd" clip-rule="evenodd" d="M15 18V19C15 20.6569 13.6569 22 12 22C10.3431 22 9 20.6569 9 19V18H5C4.45 18 4 17.55 4 17C4 16.45 4.45 16 5 16H6V10C6 9.39383 6.08989 8.80865 6.25707 8.25707L5 7C4.44772 6.44772 4.44772 5.55228 5 5C5.55228 4.44772 6.44772 4.44772 7 5L18 16H19C19.5523 16 20 16.4477 20 17C20 17.55 19.55 18 19 18H15ZM12 20C12.5523 20 13 19.5523 13 19C13 18.5878 13 18 13 18H11C11 18 11 18.7055 11 19C11 19.5523 11.4477 20 12 20ZM8.87627 4.87627C9.51525 4.48587 10.233 4.21165 11 4.08296V3C11 2.44772 11.4477 2 12 2C12.5523 2 13 2.44772 13 3V4.08296C15.8377 4.55904 18 7.027 18 10V14L8.87627 4.87627Z" fill="black"/>
</svg>
