<svg width="24" height="24" viewBox="0 0 24 24" fill="none" xmlns="http://www.w3.org/2000/svg">
<path fill-rule="evenodd" clip-rule="evenodd" d="M15 18V19C15 20.6569 13.6569 22 12 22C10.3431 22 9 20.6569 9 19V18H5C4.45 18 4 17.55 4 17C4 16.45 4.45 16 5 16H6V10C6 7.027 8.16229 4.55904 11 4.08296V3C11 2.44772 11.4477 2 12 2C12.5523 2 13 2.44772 13 3V4.08296C15.8377 4.55904 18 7.027 18 10V16H19C19.55 16 20 16.45 20 17C20 17.55 19.55 18 19 18H15ZM12 20C12.5523 20 13 19.5523 13 19V18H11V19C11 19.5523 11.4477 20 12 20ZM12 15C12.5523 15 13 14.5523 13 14V12H15C15.5523 12 16 11.5523 16 11C16 10.4477 15.5523 10 15 10H13V8C13 7.44772 12.5523 7 12 7C11.4477 7 11 7.44772 11 8V10H9C8.44772 10 8 10.4477 8 11C8 11.5523 8.44772 12 9 12H11V14C11 14.5523 11.4477 15 12 15Z" fill="black"/>
</svg>
