<svg width="24" height="24" viewBox="0 0 24 24" fill="none" xmlns="http://www.w3.org/2000/svg">
<path fill-rule="evenodd" clip-rule="evenodd" d="M21 7C21 9.20914 19.2091 11 17 11C14.7909 11 13 9.20914 13 7C13 4.79086 14.7909 3 17 3C19.2091 3 21 4.79086 21 7ZM11 5H5C3.89543 5 3 5.89543 3 7V19C3 20.1046 3.89543 21 5 21H17C18.1046 21 19 20.1046 19 19V13H17V19H5V7H11V5Z" fill="black"/>
<mask id="mask0" mask-type="alpha" maskUnits="userSpaceOnUse" x="3" y="3" width="18" height="18">
<path fill-rule="evenodd" clip-rule="evenodd" d="M21 7C21 9.20914 19.2091 11 17 11C14.7909 11 13 9.20914 13 7C13 4.79086 14.7909 3 17 3C19.2091 3 21 4.79086 21 7ZM11 5H5C3.89543 5 3 5.89543 3 7V19C3 20.1046 3.89543 21 5 21H17C18.1046 21 19 20.1046 19 19V13H17V19H5V7H11V5Z" fill="white"/>
</mask>
<g mask="url(#mask0)">
</g>
</svg>
