<svg width="24" height="24" viewBox="0 0 24 24" fill="none" xmlns="http://www.w3.org/2000/svg">
<path fill-rule="evenodd" clip-rule="evenodd" d="M4.02423 9L4 8.93099C3.46039 7.38416 3 5.27 3 4C3 3.45 3.45 3 4 3C4 3 7 3 7 3C8.10457 3 9 3.89543 9 5V7C9 8.10457 8.10457 9 7 9H6.16303C7.78656 13.0108 10.9892 16.2134 15 17.837V17C15 15.8954 15.8954 15 17 15H19C20.1046 15 21 15.8954 21 17V20C21 20.45 20.45 21 20 21C18.2745 21 16.5606 20.5444 15 20C9.88552 18.1681 5.83194 14.1145 4.02423 9Z" fill="black"/>
</svg>
