<svg width="24" height="24" viewBox="0 0 24 24" fill="none" xmlns="http://www.w3.org/2000/svg">
<path fill-rule="evenodd" clip-rule="evenodd" d="M11.9997 2C6.47687 2 2 6.47687 2 11.9997C2 16.2362 4.63573 19.8541 8.35542 21.3115C8.26835 20.52 8.18926 19.3073 8.39036 18.4428C8.57184 17.6629 9.56261 13.4724 9.56261 13.4724C9.56261 13.4724 9.26403 12.8734 9.26403 11.988C9.26403 10.5969 10.0696 9.55955 11.0733 9.55955C11.9261 9.55955 12.3381 10.1996 12.3381 10.9678C12.3381 11.8256 11.7925 13.1082 11.5104 14.2976C11.2744 15.2927 12.0095 16.1044 12.9911 16.1044C14.7685 16.1044 16.1345 14.2302 16.1345 11.5252C16.1345 9.13099 14.4141 7.45661 11.9574 7.45661C9.1126 7.45661 7.44189 9.59082 7.44189 11.7968C7.44189 12.6557 7.77297 13.5778 8.1862 14.0781C8.26835 14.1774 8.28 14.2645 8.25609 14.365C8.18007 14.6814 8.01147 15.3601 7.97774 15.4999C7.93421 15.682 7.83305 15.7212 7.6436 15.6329C6.39472 15.0517 5.61362 13.2259 5.61362 11.7587C5.61362 8.60433 7.9054 5.70804 12.221 5.70804C15.69 5.70804 18.3858 8.18007 18.3858 11.4835C18.3858 14.9297 16.2129 17.7028 13.1965 17.7028C12.1836 17.7028 11.2309 17.1767 10.9047 16.5544C10.9047 16.5544 10.4032 18.4642 10.2818 18.932C10.0562 19.8002 9.44674 20.8897 9.03902 21.5537C9.97462 21.843 10.9691 21.9994 11.9997 21.9994C17.5225 21.9994 22 17.5219 22 11.9997C22 6.47687 17.5225 2 11.9997 2Z" fill="black"/>
</svg>
