<svg width="24" height="24" viewBox="0 0 24 24" fill="none" xmlns="http://www.w3.org/2000/svg">
<path fill-rule="evenodd" clip-rule="evenodd" d="M10 9.08535V6H7V10.5C7 11.3284 6.32843 12 5.5 12C4.67157 12 4 11.3284 4 10.5C4 9.67157 4.67157 9 5.5 9C5.67532 9 5.84361 9.03008 6 9.08535V5C6 4.44772 6.44772 4 7 4H10C10.5523 4 11 4.44772 11 5V10.5C11 11.3284 10.3284 12 9.5 12C8.67157 12 8 11.3284 8 10.5C8 9.67157 8.67157 9 9.5 9C9.67532 9 9.84361 9.03008 10 9.08535ZM13 11C13 10.4477 13.4477 10 14 10H19C19.5523 10 20 10.4477 20 11C20 11.5523 19.5523 12 19 12H14C13.4477 12 13 11.5523 13 11ZM9 14C8.44772 14 8 14.4477 8 15C8 15.5523 8.44771 16 9 16H19C19.5523 16 20 15.5523 20 15C20 14.4477 19.5523 14 19 14H9ZM9 18C8.44772 18 8 18.4477 8 19C8 19.5523 8.44771 20 9 20H19C19.5523 20 20 19.5523 20 19C20 18.4477 19.5523 18 19 18H9Z" fill="black"/>
</svg>
