<svg width="24" height="24" viewBox="0 0 24 24" fill="none" xmlns="http://www.w3.org/2000/svg">
<path fill-rule="evenodd" clip-rule="evenodd" d="M17 11V13H20C20.5523 13 21 13.4477 21 14C21 14.5523 20.5523 15 20 15H16.7324C16.3866 15.5978 15.7403 16 15 16H12C10.1334 16 8.56545 14.7215 8.12406 12.9924C8.08342 12.9974 8.04201 13 8 13H4C3.44772 13 3 12.5523 3 12C3 11.4477 3.44772 11 4 11H8C8.04201 11 8.08342 11.0026 8.12406 11.0076C8.56545 9.27853 10.1334 8 12 8H15C15.7403 8 16.3866 8.4022 16.7324 9H20C20.5523 9 21 9.44772 21 10C21 10.5523 20.5523 11 20 11H17Z" fill="black"/>
</svg>
