<svg width="24" height="24" viewBox="0 0 24 24" fill="none" xmlns="http://www.w3.org/2000/svg">
<path fill-rule="evenodd" clip-rule="evenodd" d="M20.1969 3C20.9569 3 21.642 3.48002 21.902 4.19406C21.975 4.39807 22.001 4.60508 22 4.81409V10.8484L21.931 12.0484C21.642 14.7776 20.2249 17.1627 18.0328 18.8268C17.9938 18.8578 17.9538 18.8868 17.9138 18.9158L17.9138 18.9158L17.8888 18.9338C16.7567 19.7608 15.4947 20.3278 14.1356 20.6249C14.1136 20.6359 14.0916 20.6439 14.0716 20.6479C13.9976 20.6639 13.9256 20.6779 13.8526 20.6919C13.2455 20.8049 12.6285 20.8619 12.0135 20.8619C11.3475 20.8619 10.6774 20.7939 10.0224 20.6619C8.60332 20.3758 7.28726 19.7938 6.1122 18.9348L6.0872 18.9168C6.0726 18.9058 6.058 18.895 6.04346 18.8842C6.01814 18.8655 5.99296 18.8468 5.96819 18.8278C3.77609 17.1647 2.35902 14.7796 2.069 12.0494L2 10.8494V4.81409C2 4.59408 2.04 4.37807 2.11901 4.17006C2.38502 3.47002 3.06605 3 3.81309 3H18.4658H20.1869H20.1969ZM12.9625 14.9936L17.6668 10.4814C18.2128 9.95634 18.2308 9.0893 17.7078 8.54227C17.1837 7.99624 16.3157 7.97824 15.7687 8.50227L12.0135 12.1034L8.2573 8.50227C7.71028 7.97724 6.84224 7.99524 6.31821 8.54227C5.79418 9.0893 5.81219 9.95734 6.35921 10.4814L11.0644 14.9936C11.3295 15.2476 11.6715 15.3756 12.0135 15.3756C12.3545 15.3756 12.6965 15.2476 12.9625 14.9936Z" fill="black"/>
</svg>
