<svg width="24" height="24" viewBox="0 0 24 24" fill="none" xmlns="http://www.w3.org/2000/svg">
<path fill-rule="evenodd" clip-rule="evenodd" d="M21 12C21 16.9706 16.9706 21 12 21C7.02943 21 3 16.9706 3 12C3 7.02944 7.02943 3 12 3C16.9706 3 21 7.02944 21 12ZM18.9291 13C18.4439 16.3923 15.5265 19 12 19C8.47353 19 5.55612 16.3923 5.07089 13H8.12602C8.57007 14.7252 10.1362 16 12 16C13.8638 16 15.4299 14.7252 15.874 13H18.9291ZM18.9291 11H15.874C15.4299 9.27477 13.8638 8 12 8C10.1362 8 8.57007 9.27477 8.12602 11H5.07089C5.55612 7.6077 8.47353 5 12 5C15.5265 5 18.4439 7.6077 18.9291 11ZM14 12C14 13.1046 13.1046 14 12 14C10.8954 14 10 13.1046 10 12C10 10.8954 10.8954 10 12 10C13.1046 10 14 10.8954 14 12Z" fill="black"/>
</svg>
