<svg width="24" height="24" viewBox="0 0 24 24" fill="none" xmlns="http://www.w3.org/2000/svg">
<path fill-rule="evenodd" clip-rule="evenodd" d="M11 5V6H5C4.44772 6 4 6.44772 4 7C4 7.55228 4.44772 8 5 8H19C19.5523 8 20 7.55228 20 7C20 6.44772 19.5523 6 19 6H13V5C13 4.44772 12.5523 4 12 4C11.4477 4 11 4.44772 11 5ZM20 11V18C20 19.1046 19.1046 20 18 20H6C4.89543 20 4 19.1046 4 18V11H3C2.44772 11 2 10.5523 2 10C2 9.44772 2.44772 9 3 9H21C21.5523 9 22 9.44772 22 10C22 10.5523 21.5523 11 21 11H20ZM6 11V18H18V11H6Z" fill="black"/>
</svg>
