<svg width="24" height="24" viewBox="0 0 24 24" fill="none" xmlns="http://www.w3.org/2000/svg">
<path fill-rule="evenodd" clip-rule="evenodd" d="M6.73244 12H9V19C9 20.1046 9.89543 21 11 21H19C20.1046 21 21 20.1046 21 19V5C21 3.89543 20.1046 3 19 3H11C9.89543 3 9 3.89543 9 5V10H6.73244C6.38663 9.4022 5.74028 9 5 9C3.89543 9 3 9.89543 3 11C3 12.1046 3.89543 13 5 13C5.74028 13 6.38663 12.5978 6.73244 12ZM13.2676 12H11V19H19V5H11V10H13.2676C13.6134 9.4022 14.2597 9 15 9C16.1046 9 17 9.89543 17 11C17 12.1046 16.1046 13 15 13C14.2597 13 13.6134 12.5978 13.2676 12Z" fill="black"/>
</svg>
