<svg width="24" height="24" viewBox="0 0 24 24" fill="none" xmlns="http://www.w3.org/2000/svg">
<path fill-rule="evenodd" clip-rule="evenodd" d="M7 15V5C7 4.44772 6.55228 4 6 4C5.44772 4 5 4.44772 5 5V15C5 15.5523 5.44772 16 6 16C6.55228 16 7 15.5523 7 15ZM15 15V5C15 4.44772 14.5523 4 14 4C13.4477 4 13 4.44772 13 5V15C13 15.5523 13.4477 16 14 16C14.5523 16 15 15.5523 15 15ZM19 19V9C19 8.44772 18.5523 8 18 8C17.4477 8 17 8.44772 17 9V19C17 19.5523 17.4477 20 18 20C18.5523 20 19 19.5523 19 19ZM11 9V19C11 19.5523 10.5523 20 10 20C9.44772 20 9 19.5523 9 19V9C9 8.44772 9.44772 8 10 8C10.5523 8 11 8.44772 11 9Z" fill="black"/>
</svg>
