<svg width="24" height="24" viewBox="0 0 24 24" fill="none" xmlns="http://www.w3.org/2000/svg">
<path fill-rule="evenodd" clip-rule="evenodd" d="M16 16H8V13.9988C8.02424 13.9996 8.04859 14 8.07303 14H16.7753C17.7469 14 18.5882 13.3489 18.7989 12.4339L19.9506 7.43386C19.9834 7.29141 20 7.14592 20 7C20 5.89543 19.1449 5.00122 18 5.00122V7L16.7753 12H8V7V5.00122V3C8 2.44772 7.55228 2 7 2H5C4.44772 2 4 2.44772 4 3C4 3.55228 4.44772 4 5 4H6V17C6 17.5523 6.44772 18 7 18H16C16.5523 18 17 17.5523 17 17C17 16.4477 16.5523 16 16 16ZM9 20.5C9 21.3284 8.32843 22 7.5 22C6.67157 22 6 21.3284 6 20.5C6 19.6716 6.67157 19 7.5 19C8.32843 19 9 19.6716 9 20.5ZM16.5 22C17.3284 22 18 21.3284 18 20.5C18 19.6716 17.3284 19 16.5 19C15.6716 19 15 19.6716 15 20.5C15 21.3284 15.6716 22 16.5 22ZM16 6C16 5.44772 15.5523 5 15 5H11C10.4477 5 10 5.44772 10 6C10 6.55228 10.4477 7 11 7H15C15.5523 7 16 6.55228 16 6Z" fill="black"/>
</svg>
