<svg width="24" height="24" viewBox="0 0 24 24" fill="none" xmlns="http://www.w3.org/2000/svg">
<path fill-rule="evenodd" clip-rule="evenodd" d="M7.72563 19.2744C8.39812 20.8774 9.19906 22 10 22H14C14.8009 22 15.6019 20.8774 16.2744 19.2744L19 22L20 21V17L17.6175 14.6175C17.8602 13.3251 18 12.0577 18 11C18 7 15 2 12 2C9 2 6 7 6 11C6 12.0577 6.13984 13.3251 6.38254 14.6175L4 17V21L5 22L7.72563 19.2744ZM13.6153 20H12H10.3847C10.3331 19.9358 10.2726 19.8525 10.2065 19.7512C9.85927 19.2188 9.48683 18.3859 9.14737 17.3675C8.45524 15.2912 8 12.7548 8 11C8 7.80172 10.444 4 12 4C13.556 4 16 7.80172 16 11C16 12.7548 15.5448 15.2912 14.8526 17.3675C14.5132 18.3859 14.1407 19.2188 13.7935 19.7512C13.7274 19.8525 13.6669 19.9358 13.6153 20Z" fill="black"/>
</svg>
