<svg width="24" height="24" viewBox="0 0 24 24" fill="none" xmlns="http://www.w3.org/2000/svg">
<path fill-rule="evenodd" clip-rule="evenodd" d="M14 22H10C9.19906 22 8.39812 20.8774 7.72563 19.2744L5 22L4 21V17L6.38254 14.6175C6.13984 13.3251 6 12.0577 6 11C6 7 9 2 12 2C15 2 18 7 18 11C18 12.0577 17.8602 13.3251 17.6175 14.6175L20 17V21L19 22L16.2744 19.2744C15.6019 20.8774 14.8009 22 14 22ZM12 20H13.6153C13.6669 19.9358 13.7274 19.8525 13.7935 19.7512C14.1407 19.2188 14.5132 18.3859 14.8526 17.3675C15.5448 15.2912 16 12.7548 16 11C16 7.80172 13.556 4 12 4C10.444 4 8 7.80172 8 11C8 12.7548 8.45524 15.2912 9.14737 17.3675C9.48683 18.3859 9.85927 19.2188 10.2065 19.7512C10.2726 19.8525 10.3331 19.9358 10.3847 20H12ZM12 12C13.1046 12 14 11.1046 14 10C14 8.89543 13.1046 8 12 8C10.8954 8 10 8.89543 10 10C10 11.1046 10.8954 12 12 12Z" fill="black"/>
</svg>
