<svg width="24" height="24" viewBox="0 0 24 24" fill="none" xmlns="http://www.w3.org/2000/svg">
<path fill-rule="evenodd" clip-rule="evenodd" d="M7 21C8.8644 21 10.4309 19.7245 10.8744 17.9985C10.9161 17.9995 10.958 18 11 18C13.0616 18 14.8318 16.7522 15.5966 14.9707C18.6302 14.6712 21 12.1124 21 9C21 5.68629 18.3137 3 15 3C11.8876 3 9.32877 5.36975 9.02929 8.40336C7.24776 9.16816 6 10.9384 6 13C6 13.042 6.00052 13.0839 6.00155 13.1256C4.27554 13.5691 3 15.1356 3 17C3 19.2091 4.79086 21 7 21ZM15 5C13.1356 5 11.5691 6.27554 11.1256 8.00155C13.7872 8.06718 15.9328 10.2128 15.9985 12.8744C17.7245 12.4309 19 10.8644 19 9C19 6.79086 17.2091 5 15 5ZM10.8733 15.9974C10.5111 14.5939 9.40611 13.4889 8.00263 13.1267C8.00088 13.0847 8 13.0424 8 13C8 11.3431 9.34315 10 11 10C12.6569 10 14 11.3431 14 13C14 14.6569 12.6569 16 11 16C10.9576 16 10.9153 15.9991 10.8733 15.9974ZM9 17C9 18.1046 8.10457 19 7 19C5.89543 19 5 18.1046 5 17C5 15.8954 5.89543 15 7 15C8.10457 15 9 15.8954 9 17Z" fill="black"/>
</svg>
