<svg width="24" height="24" viewBox="0 0 24 24" fill="none" xmlns="http://www.w3.org/2000/svg">
<path fill-rule="evenodd" clip-rule="evenodd" d="M21.7046 20.2785L16.3251 14.8989C17.375 13.5453 18 11.8457 18 10C18 5.58172 14.4183 2 10 2C5.58172 2 2 5.58172 2 10C2 14.4183 5.58172 18 10 18C11.8457 18 13.5453 17.375 14.8989 16.3251L20.2785 21.7046C20.6723 22.0985 21.3108 22.0985 21.7046 21.7046C22.0985 21.3108 22.0985 20.6723 21.7046 20.2785ZM16 10C16 13.3137 13.3137 16 10 16C6.68629 16 4 13.3137 4 10C4 6.68629 6.68629 4 10 4C13.3137 4 16 6.68629 16 10ZM13 11H11V13C11 13.5523 10.5523 14 10 14C9.44772 14 9 13.5523 9 13V11H7C6.44772 11 6 10.5523 6 10C6 9.44772 6.44772 9 7 9H9V7C9 6.44772 9.44772 6 10 6C10.5523 6 11 6.44772 11 7V9H13C13.5523 9 14 9.44772 14 10C14 10.5523 13.5523 11 13 11Z" fill="black"/>
</svg>
