<svg width="24" height="24" viewBox="0 0 24 24" fill="none" xmlns="http://www.w3.org/2000/svg">
<path fill-rule="evenodd" clip-rule="evenodd" d="M17 14C16.1511 14 15.3845 14.3526 14.8387 14.9194L9.96167 12.4808C9.98689 12.3243 10 12.1637 10 12C10 11.8363 9.98689 11.6757 9.96167 11.5192L14.8387 9.08063C15.3845 9.64738 16.1511 10 17 10C18.6569 10 20 8.65685 20 7C20 5.34315 18.6569 4 17 4C15.3431 4 14 5.34315 14 7C14 7.16406 14.0132 7.32504 14.0385 7.48195L9.166 9.92431C8.61996 9.35467 7.8514 9 7 9C5.34315 9 4 10.3431 4 12C4 13.6569 5.34315 15 7 15C7.8514 15 8.61996 14.6453 9.166 14.0757L14.0385 16.518C14.0132 16.675 14 16.8359 14 17C14 18.6569 15.3431 20 17 20C18.6569 20 20 18.6569 20 17C20 15.3431 18.6569 14 17 14ZM18 7C18 7.55228 17.5523 8 17 8C16.4477 8 16 7.55228 16 7C16 6.44772 16.4477 6 17 6C17.5523 6 18 6.44772 18 7ZM17 18C17.5523 18 18 17.5523 18 17C18 16.4477 17.5523 16 17 16C16.4477 16 16 16.4477 16 17C16 17.5523 16.4477 18 17 18ZM8 12C8 12.5523 7.55228 13 7 13C6.44772 13 6 12.5523 6 12C6 11.4477 6.44772 11 7 11C7.55228 11 8 11.4477 8 12Z" fill="black"/>
</svg>
