<svg width="24" height="24" viewBox="0 0 24 24" fill="none" xmlns="http://www.w3.org/2000/svg">
<path fill-rule="evenodd" clip-rule="evenodd" d="M17 8C17.5523 8 18 8.44772 18 9V21C18 21.5523 17.5523 22 17 22H7C6.44772 22 6 21.5523 6 21V9C6 8.44772 6.44772 8 7 8V4.91465C6.4174 4.70873 6 4.15311 6 3.5C6 2.67157 6.67157 2 7.5 2C8.15311 2 8.70873 2.4174 8.91465 3H15.0854C15.2913 2.4174 15.8469 2 16.5 2C17.3284 2 18 2.67157 18 3.5C18 4.15311 17.5826 4.70873 17 4.91465V8ZM8 10V20H16V10H8ZM9 8V5H15V8H9Z" fill="black"/>
</svg>
