<svg width="24" height="24" viewBox="0 0 24 24" fill="none" xmlns="http://www.w3.org/2000/svg">
<path fill-rule="evenodd" clip-rule="evenodd" d="M2 14C2 18.4183 5.58172 22 10 22C14.4183 22 18 18.4183 18 14C18 9.58172 14.4183 6 10 6C5.58172 6 2 9.58172 2 14ZM16 14C16 17.3137 13.3137 20 10 20C6.68629 20 4 17.3137 4 14C4 10.6863 6.68629 8 10 8C13.3137 8 16 10.6863 16 14ZM13 15C13 16.6569 11.6569 18 10 18C8.34315 18 7 16.6569 7 15H13ZM8 13C8.55228 13 9 12.5523 9 12C9 11.4477 8.55228 11 8 11C7.44772 11 7 11.4477 7 12C7 12.5523 7.44772 13 8 13ZM12 13C12.5523 13 13 12.5523 13 12C13 11.4477 12.5523 11 12 11C11.4477 11 11 11.4477 11 12C11 12.5523 11.4477 13 12 13ZM20 4H21C21.5523 4 22 4.44772 22 5C22 5.55228 21.5523 6 21 6H20V7C20 7.55228 19.5523 8 19 8C18.4477 8 18 7.55228 18 7V6H17C16.4477 6 16 5.55228 16 5C16 4.44772 16.4477 4 17 4H18V3C18 2.44772 18.4477 2 19 2C19.5523 2 20 2.44772 20 3V4Z" fill="black"/>
</svg>
