<svg width="24" height="24" viewBox="0 0 24 24" fill="none" xmlns="http://www.w3.org/2000/svg">
<path fill-rule="evenodd" clip-rule="evenodd" d="M15.25 3.875C15.25 6.41 17.7981 7.82031 18.625 8C19.4519 7.82031 22 6.41 22 3.875C22 2.83947 21.1605 2 20.125 2C19.5117 2 18.9671 2.2945 18.625 2.74982C18.2829 2.2945 17.7383 2 17.125 2C16.0895 2 15.25 2.83947 15.25 3.875ZM10 22C5.58172 22 2 18.4183 2 14C2 9.58172 5.58172 6 10 6C14.4183 6 18 9.58172 18 14C18 18.4183 14.4183 22 10 22ZM10 20C13.3137 20 16 17.3137 16 14C16 10.6863 13.3137 8 10 8C6.68629 8 4 10.6863 4 14C4 17.3137 6.68629 20 10 20ZM10 18C11.6569 18 13 16.6569 13 15H7C7 16.6569 8.34315 18 10 18ZM9 12C9 12.5523 8.55228 13 8 13C7.44772 13 7 12.5523 7 12C7 11.4477 7.44772 11 8 11C8.55228 11 9 11.4477 9 12ZM13 12C13 12.5523 12.5523 13 12 13C11.4477 13 11 12.5523 11 12C11 11.4477 11.4477 11 12 11C12.5523 11 13 11.4477 13 12Z" fill="black"/>
</svg>
