<svg width="24" height="24" viewBox="0 0 24 24" fill="none" xmlns="http://www.w3.org/2000/svg">
<path fill-rule="evenodd" clip-rule="evenodd" d="M18 6C18.5523 6 19 5.55228 19 5C19 4.44772 18.5523 4 18 4C17.4477 4 17 4.44772 17 5C17 5.55228 17.4477 6 18 6ZM19 9C19 9.55229 18.5523 10 18 10C17.4477 10 17 9.55229 17 9C17 8.44772 17.4477 8 18 8C18.5523 8 19 8.44772 19 9ZM18 14C18.5523 14 19 13.5523 19 13C19 12.4477 18.5523 12 18 12C17.4477 12 17 12.4477 17 13C17 13.5523 17.4477 14 18 14ZM18 18C18.5523 18 19 17.5523 19 17C19 16.4477 18.5523 16 18 16C17.4477 16 17 16.4477 17 17C17 17.5523 17.4477 18 18 18ZM15 19C15 19.5523 14.5523 20 14 20C13.4477 20 13 19.5523 13 19C13 18.4477 13.4477 18 14 18C14.5523 18 15 18.4477 15 19ZM14 16C14.5523 16 15 15.5523 15 15C15 14.4477 14.5523 14 14 14C13.4477 14 13 14.4477 13 15C13 15.5523 13.4477 16 14 16ZM15 11C15 11.5523 14.5523 12 14 12C13.4477 12 13 11.5523 13 11C13 10.4477 13.4477 10 14 10C14.5523 10 15 10.4477 15 11ZM14 8C14.5523 8 15 7.55228 15 7C15 6.44772 14.5523 6 14 6C13.4477 6 13 6.44772 13 7C13 7.55228 13.4477 8 14 8ZM11 17C11 17.5523 10.5523 18 10 18C9.44771 18 9 17.5523 9 17C9 16.4477 9.44771 16 10 16C10.5523 16 11 16.4477 11 17ZM10 14C10.5523 14 11 13.5523 11 13C11 12.4477 10.5523 12 10 12C9.44771 12 9 12.4477 9 13C9 13.5523 9.44771 14 10 14ZM11 9C11 9.55229 10.5523 10 10 10C9.44771 10 9 9.55229 9 9C9 8.44772 9.44771 8 10 8C10.5523 8 11 8.44772 11 9ZM10 6C10.5523 6 11 5.55228 11 5C11 4.44772 10.5523 4 10 4C9.44771 4 9 4.44772 9 5C9 5.55228 9.44771 6 10 6ZM7 19C7 19.5523 6.55228 20 6 20C5.44772 20 5 19.5523 5 19C5 18.4477 5.44772 18 6 18C6.55228 18 7 18.4477 7 19ZM6 16C6.55228 16 7 15.5523 7 15C7 14.4477 6.55228 14 6 14C5.44772 14 5 14.4477 5 15C5 15.5523 5.44772 16 6 16ZM7 11C7 11.5523 6.55228 12 6 12C5.44772 12 5 11.5523 5 11C5 10.4477 5.44772 10 6 10C6.55228 10 7 10.4477 7 11ZM6 8C6.55228 8 7 7.55228 7 7C7 6.44772 6.55228 6 6 6C5.44772 6 5 6.44772 5 7C5 7.55228 5.44772 8 6 8Z" fill="black"/>
</svg>
