<svg width="24" height="24" viewBox="0 0 24 24" fill="none" xmlns="http://www.w3.org/2000/svg">
<path fill-rule="evenodd" clip-rule="evenodd" d="M8 10L6 8L12 2L18 8L16 10V17C16 17.5523 16.4477 18 17 18C17.5523 18 18 17.5523 18 17C18 16.4477 18.4477 16 19 16C19.5523 16 20 16.4477 20 17C20 18.6569 18.6569 20 17 20C16.2316 20 15.5308 19.7111 15 19.2361V21C15 21.5523 14.5523 22 14 22C13.4477 22 13 21.5523 13 21V19H11V21C11 21.5523 10.5523 22 10 22C9.44772 22 9 21.5523 9 21V19.2361C8.46924 19.7111 7.76835 20 7 20C5.34315 20 4 18.6569 4 17C4 16.4477 4.44772 16 5 16C5.55228 16 6 16.4477 6 17C6 17.5523 6.44772 18 7 18C7.55228 18 8 17.5523 8 17V10Z" fill="black"/>
</svg>
