<svg width="24" height="24" viewBox="0 0 24 24" fill="none" xmlns="http://www.w3.org/2000/svg">
<path fill-rule="evenodd" clip-rule="evenodd" d="M15.2399 9H13V19H20C20.5523 19 21 19.4477 21 20C21 20.5523 20.5523 21 20 21H4C3.44772 21 3 20.5523 3 20C3 19.4477 3.44772 19 4 19H11V9H8.76002C8.34027 9 8 8.68 8 8.28525C8 8.14414 8.04441 8.00619 8.12765 7.88878L11.3676 3.31835C11.6004 2.98991 12.0723 2.90115 12.4215 3.12012C12.505 3.17246 12.5767 3.23984 12.6323 3.31835L15.8723 7.88878C16.1051 8.21723 16.0107 8.66099 15.6615 8.87996C15.5366 8.95823 15.3899 9 15.2399 9ZM20 13C20.5523 13 21 13.4477 21 14C21 14.5523 20.5523 15 20 15H15V13H20ZM9 13H8H4C3.44772 13 3 13.4477 3 14C3 14.5523 3.44772 15 4 15H9V13Z" fill="black"/>
</svg>
