<svg width="24" height="24" viewBox="0 0 24 24" fill="none" xmlns="http://www.w3.org/2000/svg">
<path fill-rule="evenodd" clip-rule="evenodd" d="M8.76002 15H11V5H4C3.44772 5 3 4.55228 3 4C3 3.44772 3.44772 3 4 3H20C20.5523 3 21 3.44772 21 4C21 4.55228 20.5523 5 20 5H13V15H15.2399C15.3899 15 15.5366 15.0418 15.6615 15.12C16.0107 15.339 16.1051 15.7828 15.8723 16.1112L12.6323 20.6816C12.5767 20.7602 12.505 20.8275 12.4215 20.8799C12.0723 21.0988 11.6004 21.0101 11.3676 20.6816L8.12765 16.1112C8.04441 15.9938 8 15.8559 8 15.7147C8 15.32 8.34027 15 8.76002 15ZM20 9C20.5523 9 21 9.44772 21 10C21 10.5523 20.5523 11 20 11H15V9H20ZM9 9H8H4C3.44772 9 3 9.44772 3 10C3 10.5523 3.44772 11 4 11H9V9Z" fill="black"/>
</svg>
