<svg width="24" height="24" viewBox="0 0 24 24" fill="none" xmlns="http://www.w3.org/2000/svg">
<path fill-rule="evenodd" clip-rule="evenodd" d="M11 3C11 2.44772 11.4477 2 12 2C12.5523 2 13 2.44772 13 3V5C13 5.55228 12.5523 6 12 6C11.4477 6 11 5.55228 11 5V3ZM12 17C9.23858 17 7 14.7614 7 12C7 9.23858 9.23858 7 12 7C14.7614 7 17 9.23858 17 12C17 14.7614 14.7614 17 12 17ZM3 11C2.44772 11 2 11.4477 2 12C2 12.5523 2.44772 13 3 13H5C5.55228 13 6 12.5523 6 12C6 11.4477 5.55228 11 5 11H3ZM18 12C18 11.4477 18.4477 11 19 11H21C21.5523 11 22 11.4477 22 12C22 12.5523 21.5523 13 21 13H19C18.4477 13 18 12.5523 18 12ZM12 18C11.4477 18 11 18.4477 11 19V21C11 21.5523 11.4477 22 12 22C12.5523 22 13 21.5523 13 21V19C13 18.4477 12.5523 18 12 18ZM16.2439 7.75612C15.8534 7.36559 15.8534 6.73243 16.2439 6.3419L17.6568 4.92894C18.0474 4.53841 18.6805 4.53841 19.0711 4.92894C19.4616 5.31946 19.4616 5.95263 19.0711 6.34315L17.6581 7.75612C17.2676 8.14664 16.6344 8.14664 16.2439 7.75612ZM4.92894 17.6568C4.53841 18.0474 4.53841 18.6805 4.92894 19.0711C5.31946 19.4616 5.95263 19.4616 6.34315 19.0711L7.75696 17.6573C8.14748 17.2667 8.14748 16.6336 7.75696 16.243C7.36644 15.8525 6.73327 15.8525 6.34275 16.243L4.92894 17.6568ZM16.2416 16.2416C15.8511 16.6321 15.8511 17.2653 16.2416 17.6558L17.6569 19.0711C18.0474 19.4616 18.6806 19.4616 19.0711 19.0711C19.4616 18.6806 19.4616 18.0474 19.0711 17.6569L17.6558 16.2416C17.2653 15.8511 16.6321 15.8511 16.2416 16.2416ZM4.92894 6.34315C4.53841 5.95263 4.53841 5.31946 4.92894 4.92894C5.31946 4.53842 5.95263 4.53842 6.34315 4.92894L7.75737 6.34315C8.14789 6.73368 8.14789 7.36684 7.75737 7.75737C7.36684 8.14789 6.73368 8.14789 6.34315 7.75737L4.92894 6.34315Z" fill="black"/>
</svg>
