<svg width="24" height="24" viewBox="0 0 24 24" fill="none" xmlns="http://www.w3.org/2000/svg">
<path fill-rule="evenodd" clip-rule="evenodd" d="M11 2H13V5H11V2ZM6 12C6 15.3137 8.68629 18 12 18C15.3137 18 18 15.3137 18 12C18 8.68629 15.3137 6 12 6C8.68629 6 6 8.68629 6 12ZM16 12C16 14.2091 14.2091 16 12 16C9.79086 16 8 14.2091 8 12C8 9.79086 9.79086 8 12 8C14.2091 8 16 9.79086 16 12ZM5 11H2V13H5V11ZM19 11H22V13H19V11ZM13 22V19H11V22H13ZM18.6213 4L20.0355 5.41421L17.9142 7.53553L16.5 6.12132L18.6213 4ZM17.9142 16L16.5 17.4142L18.6213 19.5355L20.0355 18.1213L17.9142 16ZM6.12132 16L7.53553 17.4142L5.41421 19.5355L4 18.1213L6.12132 16ZM5.41421 4L4 5.41421L6.12132 7.53553L7.53553 6.12132L5.41421 4Z" fill="black"/>
</svg>
