<svg width="24" height="24" viewBox="0 0 24 24" fill="none" xmlns="http://www.w3.org/2000/svg">
<path fill-rule="evenodd" clip-rule="evenodd" d="M11 5C11 4.44772 11.4477 4 12 4C12.5523 4 13 4.44772 13 5V7C13 7.55228 12.5523 8 12 8C11.4477 8 11 7.55228 11 7V5ZM5.14286 20C4.51167 20 4 19.5523 4 19C4 18.4477 4.51167 18 5.14286 18H18.8571C19.4883 18 20 18.4477 20 19C20 19.5523 19.4883 20 18.8571 20H5.14286ZM3 13C2.44772 13 2 13.4477 2 14C2 14.5523 2.44772 15 3 15H5C5.55228 15 6 14.5523 6 14C6 13.4477 5.55228 13 5 13H3ZM18 14C18 13.4477 18.4477 13 19 13H21C21.5523 13 22 13.4477 22 14C22 14.5523 21.5523 15 21 15H19C18.4477 15 18 14.5523 18 14ZM16.2439 8.3419C15.8534 8.73243 15.8534 9.36559 16.2439 9.75612C16.6344 10.1466 17.2676 10.1466 17.6581 9.75612L19.0711 8.34315C19.4616 7.95263 19.4616 7.31946 19.0711 6.92894C18.6805 6.53841 18.0474 6.53841 17.6568 6.92894L16.2439 8.3419ZM4.92894 6.92894C4.53841 7.31946 4.53841 7.95263 4.92894 8.34315L6.34315 9.75737C6.73368 10.1479 7.36684 10.1479 7.75737 9.75737C8.14789 9.36684 8.14789 8.73368 7.75737 8.34315L6.34315 6.92894C5.95263 6.53842 5.31946 6.53842 4.92894 6.92894ZM15 14C15 12.3431 13.6569 11 12 11C10.3431 11 9 12.3431 9 14C9 14.5523 8.55229 15 8 15C7.44772 15 7 14.5523 7 14C7 11.2386 9.23858 9 12 9C14.7614 9 17 11.2386 17 14C17 14.5523 16.5523 15 16 15C15.4477 15 15 14.5523 15 14Z" fill="black"/>
</svg>
