<svg width="24" height="24" viewBox="0 0 24 24" fill="none" xmlns="http://www.w3.org/2000/svg">
<path fill-rule="evenodd" clip-rule="evenodd" d="M3 15C2.44772 15 2 14.5523 2 14C2 13.4477 2.44772 13 3 13H4C4 8.58172 7.58172 5 12 5C16.4183 5 20 8.58172 20 13H21C21.5523 13 22 13.4477 22 14C22 14.5523 21.5523 15 21 15H3ZM6 19C5.44772 19 5 18.5523 5 18C5 17.4477 5.44772 17 6 17H18C18.5523 17 19 17.4477 19 18C19 18.5523 18.5523 19 18 19H6ZM12 7C8.68629 7 6 9.68629 6 13H18C18 9.68629 15.3137 7 12 7Z" fill="black"/>
</svg>
