<svg width="24" height="24" viewBox="0 0 24 24" fill="none" xmlns="http://www.w3.org/2000/svg">
<path fill-rule="evenodd" clip-rule="evenodd" d="M2 13C2 13.5523 2.44772 14 3 14H21C21.5523 14 22 13.5523 22 13C22 12.4477 21.5523 12 21 12H18C18 8.68629 15.3137 6 12 6C8.68629 6 6 8.68629 6 12H3C2.44772 12 2 12.4477 2 13ZM16 12C16 9.79086 14.2091 8 12 8C9.79086 8 8 9.79086 8 12H16ZM6 16C5.44772 16 5 16.4477 5 17C5 17.5523 5.44772 18 6 18H18C18.5523 18 19 17.5523 19 17C19 16.4477 18.5523 16 18 16H6Z" fill="black"/>
</svg>
