<svg width="24" height="24" viewBox="0 0 24 24" fill="none" xmlns="http://www.w3.org/2000/svg">
<path fill-rule="evenodd" clip-rule="evenodd" d="M12 6C14.1696 6 16.0703 7.15095 17.1246 8.87543L15 11H21V5L18.5693 7.43071C17.1234 5.35695 14.7202 4 12 4C8.27134 4 5.13832 6.54955 4.25 10H6.33993C7.16381 7.66962 9.38688 6 12 6ZM12 18C9.83062 18 7.93015 16.8487 6.87627 15.1237L9 13H3V19L5.43173 16.5683C6.87714 18.6426 9.28005 20 12 20C15.7277 20 18.8599 17.4505 19.748 14H17.6586C16.8349 16.3304 14.6124 18 12 18Z" fill="black"/>
</svg>
