<svg width="24" height="24" viewBox="0 0 24 24" fill="none" xmlns="http://www.w3.org/2000/svg">
<path fill-rule="evenodd" clip-rule="evenodd" d="M13.4858 3.58026C13.8574 3.20872 14.3613 3 14.8867 3H19.0189C20.113 3 21 3.88698 21 4.98112V9.1133C21 9.63873 20.7913 10.1426 20.4197 10.5142L10.5142 20.4197C9.74049 21.1934 8.48611 21.1934 7.71244 20.4197L3.58026 16.2876C2.80658 15.5139 2.80658 14.2595 3.58026 13.4858L13.4858 3.58026ZM4.98112 14.8867L9.1133 19.0189L19.0189 9.1133V4.98112H14.8867L4.98112 14.8867ZM17 8C17 8.55228 16.5523 9 16 9C15.4477 9 15 8.55228 15 8C15 7.44772 15.4477 7 16 7C16.5523 7 17 7.44772 17 8Z" fill="black"/>
</svg>
