<svg width="24" height="24" viewBox="0 0 24 24" fill="none" xmlns="http://www.w3.org/2000/svg">
<path fill-rule="evenodd" clip-rule="evenodd" d="M19.9381 13C19.4869 16.6187 16.6187 19.4869 13 19.9381V22H11V19.9381C7.38128 19.4869 4.51314 16.6187 4.06189 13H2V11H4.06189C4.51314 7.38128 7.38128 4.51314 11 4.06189V2H13V4.06189C16.6187 4.51314 19.4869 7.38128 19.9381 11H22V13H19.9381ZM12 18C15.3137 18 18 15.3137 18 12C18 8.68629 15.3137 6 12 6C8.68629 6 6 8.68629 6 12C6 15.3137 8.68629 18 12 18ZM15 12C15 13.6569 13.6569 15 12 15C10.3431 15 9 13.6569 9 12C9 10.3431 10.3431 9 12 9C13.6569 9 15 10.3431 15 12Z" fill="black"/>
</svg>
