<svg width="24" height="24" viewBox="0 0 24 24" fill="none" xmlns="http://www.w3.org/2000/svg">
<path fill-rule="evenodd" clip-rule="evenodd" d="M9 3L8.31379 5.05863C6.4316 5.38404 5 7.02483 5 9V12C3.89543 12 3 12.8954 3 14V19C3 20.1046 3.89543 21 5 21C6.10457 21 7 20.1046 7 19H17C17 20.1046 17.8954 21 19 21C20.1046 21 21 20.1046 21 19V14C21 12.8954 20.1046 12 19 12V9C19 7.02483 17.5684 5.38404 15.6862 5.05863L15 3H9ZM9 7C7.89543 7 7 7.89543 7 9V12H17V9C17 7.89543 16.1046 7 15 7H9ZM6 16C6.55228 16 7 15.5523 7 15C7 14.4477 6.55228 14 6 14C5.44772 14 5 14.4477 5 15C5 15.5523 5.44772 16 6 16ZM19 15C19 15.5523 18.5523 16 18 16C17.4477 16 17 15.5523 17 15C17 14.4477 17.4477 14 18 14C18.5523 14 19 14.4477 19 15Z" fill="black"/>
</svg>
