<svg width="24" height="24" viewBox="0 0 24 24" fill="none" xmlns="http://www.w3.org/2000/svg">
<path fill-rule="evenodd" clip-rule="evenodd" d="M5 7H19C19.5523 7 20 6.55228 20 6C20 5.44772 19.5523 5 19 5H5C4.44772 5 4 5.44772 4 6C4 6.55228 4.44772 7 5 7ZM5 11H15C15.5523 11 16 10.5523 16 10C16 9.44772 15.5523 9 15 9H5C4.44772 9 4 9.44772 4 10C4 10.5523 4.44772 11 5 11ZM19 15H5C4.44772 15 4 14.5523 4 14C4 13.4477 4.44772 13 5 13H19C19.5523 13 20 13.4477 20 14C20 14.5523 19.5523 15 19 15ZM5 19H15C15.5523 19 16 18.5523 16 18C16 17.4477 15.5523 17 15 17H5C4.44772 17 4 17.4477 4 18C4 18.5523 4.44772 19 5 19Z" fill="black"/>
</svg>
