<svg width="24" height="24" viewBox="0 0 24 24" fill="none" xmlns="http://www.w3.org/2000/svg">
<path fill-rule="evenodd" clip-rule="evenodd" d="M5 7H19C19.5523 7 20 6.55228 20 6C20 5.44772 19.5523 5 19 5H5C4.44772 5 4 5.44772 4 6C4 6.55228 4.44772 7 5 7ZM7 11H17C17.5523 11 18 10.5523 18 10C18 9.44772 17.5523 9 17 9H7C6.44772 9 6 9.44772 6 10C6 10.5523 6.44772 11 7 11ZM19 15H5C4.44772 15 4 14.5523 4 14C4 13.4477 4.44772 13 5 13H19C19.5523 13 20 13.4477 20 14C20 14.5523 19.5523 15 19 15ZM7 19H17C17.5523 19 18 18.5523 18 18C18 17.4477 17.5523 17 17 17H7C6.44772 17 6 17.4477 6 18C6 18.5523 6.44772 19 7 19Z" fill="black"/>
</svg>
