<svg width="24" height="24" viewBox="0 0 24 24" fill="none" xmlns="http://www.w3.org/2000/svg">
<path fill-rule="evenodd" clip-rule="evenodd" d="M17 12H14L12 14L10 12H7C5.89543 12 5 11.1046 5 10V5C5 3.89543 5.89543 3 7 3H17C18.1046 3 19 3.89543 19 5V10C19 11.1046 18.1046 12 17 12ZM12 15C10.6938 15 9.58254 15.8348 9.17071 17H3L4 18L3 19H9.17071C9.58254 20.1652 10.6938 21 12 21C13.3062 21 14.4175 20.1652 14.8293 19H20L21 18L20 17H14.8293C14.4175 15.8348 13.3062 15 12 15ZM13 18C13 18.5523 12.5523 19 12 19C11.4477 19 11 18.5523 11 18C11 17.4477 11.4477 17 12 17C12.5523 17 13 17.4477 13 18ZM17 5H7V10H11L12 11L13 10H17V5Z" fill="black"/>
</svg>
