<svg width="24" height="24" viewBox="0 0 24 24" fill="none" xmlns="http://www.w3.org/2000/svg">
<path fill-rule="evenodd" clip-rule="evenodd" d="M20 3H6C5.44772 3 5 3.44772 5 4C5 4.55228 5.44772 5 6 5H20C20.5523 5 21 4.55228 21 4C21 3.44772 20.5523 3 20 3ZM9 7H18C18.5523 7 19 7.44772 19 8C19 8.55229 18.5523 9 18 9H9C8.44772 9 8 8.55228 8 8C8 7.44772 8.44772 7 9 7ZM16 11H11C10.4477 11 10 11.4477 10 12C10 12.5523 10.4477 13 11 13H16C16.5523 13 17 12.5523 17 12C17 11.4477 16.5523 11 16 11ZM9 15H15C15.5523 15 16 15.4477 16 16C16 16.5523 15.5523 17 15 17H9C8.44772 17 8 16.5523 8 16C8 15.4477 8.44772 15 9 15ZM9 20C9 19.4477 9.44772 19 10 19H12C12.5523 19 13 19.4477 13 20C13 20.5523 12.5523 21 12 21H10C9.44772 21 9 20.5523 9 20Z" fill="black"/>
</svg>
