<svg width="24" height="24" viewBox="0 0 24 24" fill="none" xmlns="http://www.w3.org/2000/svg">
<path fill-rule="evenodd" clip-rule="evenodd" d="M11.96 19C12.9984 19 14.0341 19 15 18.9321V21H18V20L17.2831 18.5662C18.9054 18.0903 20 17.0925 20 15V7C20 3 16.0446 3 12 3C7.95537 3 4 3 4 7V15C4 17.1087 5.08938 18.1057 6.71143 18.5771L6 20V21H9V18.9367C9.93901 19 10.9457 19 11.96 19ZM8 15C8 15.5523 7.55228 16 7 16C6.44772 16 6 15.5523 6 15C6 14.4477 6.44772 14 7 14C7.55228 14 8 14.4477 8 15ZM17 16C17.5523 16 18 15.5523 18 15C18 14.4477 17.5523 14 17 14C16.4477 14 16 14.4477 16 15C16 15.5523 16.4477 16 17 16ZM18 6H6V12H18V6Z" fill="black"/>
</svg>
