<svg width="24" height="24" viewBox="0 0 24 24" fill="none" xmlns="http://www.w3.org/2000/svg">
<path fill-rule="evenodd" clip-rule="evenodd" d="M10 18C10 19.6569 8.65685 21 7 21C5.34315 21 4 19.6569 4 18C2.89543 18 2 17.1046 2 16V6C2 4.89543 2.89543 4 4 4H15.0013C16.1051 4 17 4.89487 17 5.99875L20 6C21.9995 6.00028 21.9995 8.89418 21.9995 9.99917V10L22 16C22 17.1046 21.1046 18 20 18H19C19 19.6569 17.6569 21 16 21C14.3431 21 13 19.6569 13 18H10ZM4 6H15V15H4V6ZM20 8H17V12H20V8ZM16 19C16.5523 19 17 18.5523 17 18C17 17.4477 16.5523 17 16 17C15.4477 17 15 17.4477 15 18C15 18.5523 15.4477 19 16 19ZM8 18C8 18.5523 7.55228 19 7 19C6.44772 19 6 18.5523 6 18C6 17.4477 6.44772 17 7 17C7.55228 17 8 17.4477 8 18Z" fill="black"/>
</svg>
