<svg width="24" height="24" viewBox="0 0 24 24" fill="none" xmlns="http://www.w3.org/2000/svg">
<path d="M8.28251 20.2625C15.8295 20.2625 19.9592 14.004 19.9592 8.58583C19.9592 8.40976 19.9592 8.23369 19.9512 8.05762C20.7515 7.48139 21.4478 6.7531 22 5.92877C21.2637 6.2569 20.4714 6.47299 19.6391 6.57703C20.4874 6.07283 21.1357 5.26451 21.4478 4.30412C20.6555 4.77631 19.7751 5.11244 18.8387 5.29652C18.0864 4.4962 17.022 4 15.8455 4C13.5806 4 11.7399 5.84074 11.7399 8.10564C11.7399 8.42577 11.7799 8.7379 11.8439 9.04202C8.43457 8.87395 5.40936 7.23329 3.38455 4.7523C3.03241 5.36054 2.83233 6.06483 2.83233 6.81713C2.83233 8.2417 3.56062 9.4982 4.65706 10.2345C3.98479 10.2105 3.35254 10.0264 2.80032 9.72229C2.80032 9.7383 2.80032 9.7543 2.80032 9.77831C2.80032 11.7631 4.21689 13.4278 6.08964 13.8039C5.7455 13.9 5.38535 13.948 5.0092 13.948C4.7451 13.948 4.489 13.924 4.2409 13.876C4.7611 15.5086 6.28171 16.6931 8.07443 16.7251C6.66587 17.8295 4.89716 18.4858 2.97639 18.4858C2.64826 18.4858 2.32013 18.4698 2 18.4298C3.80872 19.5822 5.96959 20.2625 8.28251 20.2625Z" fill="black"/>
</svg>
