<svg width="24" height="24" viewBox="0 0 24 24" fill="none" xmlns="http://www.w3.org/2000/svg">
<path d="M12 5C15.3137 5 18 7.68629 18 11V13C18 16.3137 15.3137 19 12 19C11.4477 19 11 19.4477 11 20C11 20.5523 11.4477 21 12 21C16.4183 21 20 17.4183 20 13V11C20 6.58172 16.4183 3 12 3C7.58172 3 4 6.58172 4 11C4 14.3137 6.68629 17 10 17C13.3137 17 16 14.3137 16 11C16 8.79086 14.2091 7 12 7C9.79086 7 8 8.79086 8 11C8 11.5523 8.44772 12 9 12C9.55228 12 10 11.5523 10 11C10 9.89543 10.8954 9 12 9C13.1046 9 14 9.89543 14 11C14 13.2091 12.2091 15 10 15C7.79086 15 6 13.2091 6 11C6 7.68629 8.68629 5 12 5Z" fill="black"/>
</svg>
