<svg width="24" height="24" viewBox="0 0 24 24" fill="none" xmlns="http://www.w3.org/2000/svg">
<path fill-rule="evenodd" clip-rule="evenodd" d="M11 3C11 2.44772 11.4477 2 12 2C12.5523 2 13 2.44772 13 3V4C13 4.02069 12.9994 4.04122 12.9981 4.0616C16.2766 4.46921 18.9392 6.85845 19.7474 9.99181C19.9123 10.631 20 11.3012 20 11.9918L20 12C20 12.5523 19.5523 13 19 13C18.4477 13 18 12.5523 18 12V11.9918H5.99997L6 12C6 12.5523 5.55229 13 5 13C4.44772 13 4 12.5523 4 12V11.9918C4 11.3012 4.08769 10.631 4.25256 9.99181C5.06075 6.85846 7.72344 4.46922 11.0019 4.0616C11.0006 4.04123 11 4.02069 11 4V3ZM17.6576 9.99181C16.8333 7.66687 14.6127 6 12 6C9.38735 6 7.16666 7.66687 6.34244 9.99181H17.6576ZM12 13C11.4477 13 11 13.4477 11 14V19C11 20.6569 12.3431 22 14 22C15.6569 22 17 20.6569 17 19C17 18.4477 16.5523 18 16 18C15.4477 18 15 18.4477 15 19C15 19.5523 14.5523 20 14 20C13.4477 20 13 19.5523 13 19V14C13 13.4477 12.5523 13 12 13Z" fill="black"/>
</svg>
