<svg width="24" height="24" viewBox="0 0 24 24" fill="none" xmlns="http://www.w3.org/2000/svg">
<path fill-rule="evenodd" clip-rule="evenodd" d="M18 11V4C18 3.44772 17.5523 3 17 3C16.4477 3 16 3.44772 16 4V11C16 13.21 14.21 15 12 15C9.79 15 8 13.21 8 11V4C8 3.44772 7.55228 3 7 3C6.44772 3 6 3.44772 6 4V11C6 14.3137 8.68629 17 12 17C15.3137 17 18 14.3137 18 11ZM6 20C6 20.5523 6.44772 21 7 21H17C17.5523 21 18 20.5523 18 20C18 19.4477 17.5523 19 17 19H7C6.44772 19 6 19.4477 6 20Z" fill="black"/>
</svg>
