<svg width="24" height="24" viewBox="0 0 24 24" fill="none" xmlns="http://www.w3.org/2000/svg">
<path fill-rule="evenodd" clip-rule="evenodd" d="M11 10C11 11.6569 9.65685 13 8 13C6.34315 13 5 11.6569 5 10C5 8.34315 6.34315 7 8 7C9.65685 7 11 8.34315 11 10ZM19 10C19 11.6569 17.6569 13 16 13C14.3431 13 13 11.6569 13 10C13 8.34315 14.3431 7 16 7C17.6569 7 19 8.34315 19 10ZM8 15C5.61062 15 3.46589 16.0475 2 17.7084V19H14V17.7084C12.5341 16.0475 10.3894 15 8 15ZM16 16.952V19H22V17.7084C20.5341 16.0475 18.3894 15 16 15C15.3986 15 14.8126 15.0664 14.2491 15.1922C14.6966 15.5508 15.1151 15.9494 15.4995 16.3849L16 16.952Z" fill="black"/>
</svg>
