<svg width="24" height="24" viewBox="0 0 24 24" fill="none" xmlns="http://www.w3.org/2000/svg">
<path fill-rule="evenodd" clip-rule="evenodd" d="M6 22C7.10457 22 8 21.1046 8 20H16C16 21.1046 16.8954 22 18 22H20C21.1046 22 22 21.1046 22 20V18C22 16.8954 21.1046 16 20 16V8C21.1046 8 22 7.10457 22 6V4C22 2.89543 21.1046 2 20 2H18C16.8954 2 16 2.89543 16 4H8C8 2.89543 7.10457 2 6 2H4C2.89543 2 2 2.89543 2 4V6C2 7.10457 2.89543 8 4 8V16C2.89543 16 2 16.8954 2 18V20C2 21.1046 2.89543 22 4 22H6ZM16 6H8C8 7.10457 7.10457 8 6 8V16C7.10457 16 8 16.8954 8 18H16C16 16.8954 16.8954 16 18 16V8C16.8954 8 16 7.10457 16 6ZM4 4V6H6V4H4ZM18 6V4H20V6H18ZM18 18V20H20V18H18ZM4 20V18H6V20H4Z" fill="black"/>
</svg>
