<svg width="24" height="24" viewBox="0 0 24 24" fill="none" xmlns="http://www.w3.org/2000/svg">
<path fill-rule="evenodd" clip-rule="evenodd" d="M15 9.64903L20.6461 7.51237C21.1626 7.3169 21.7398 7.57717 21.9353 8.09371C21.9781 8.2068 22 8.32672 22 8.44764V15.557C22 16.1093 21.5523 16.557 21 16.557C20.8801 16.557 20.7612 16.5354 20.6489 16.4933L15 14.375V16C15 17.1046 14.1046 18 13 18H4C2.89543 18 2 17.1046 2 16V8C2 6.89543 2.89543 6 4 6H13C14.1046 6 15 6.89543 15 8V9.64903Z" fill="black"/>
</svg>
