<svg width="24" height="24" viewBox="0 0 24 24" fill="none" xmlns="http://www.w3.org/2000/svg">
<path fill-rule="evenodd" clip-rule="evenodd" d="M15 17L13 15H11L9 17H7C5.89543 17 5 16.1046 5 15V9C5 7.89543 5.89543 7 7 7H17C18.1046 7 19 7.89543 19 9V15C19 16.1046 18.1046 17 17 17H15ZM22 14C22 14.5523 21.5523 15 21 15C20.4477 15 20 14.5523 20 14V10C20 9.44772 20.4477 9 21 9C21.5523 9 22 9.44772 22 10V14ZM3 15C3.55228 15 4 14.5523 4 14V10C4 9.44772 3.55228 9 3 9C2.44772 9 2 9.44772 2 10V14C2 14.5523 2.44772 15 3 15Z" fill="black"/>
</svg>
