<svg width="24" height="24" viewBox="0 0 24 24" fill="none" xmlns="http://www.w3.org/2000/svg">
<path fill-rule="evenodd" clip-rule="evenodd" d="M15 6.80269C16.7934 7.84012 18 9.77915 18 12C18 14.2208 16.7934 16.1599 15 17.1973V20C15 21.1046 14.1046 22 13 22H11C9.89543 22 9 21.1046 9 20V17.1973C7.2066 16.1599 6 14.2208 6 12C6 9.77915 7.2066 7.84012 9 6.80269V4C9 2.89543 9.89543 2 11 2H13C14.1046 2 15 2.89543 15 4V6.80269ZM12 16C14.2091 16 16 14.2091 16 12C16 9.79086 14.2091 8 12 8C9.79086 8 8 9.79086 8 12C8 14.2091 9.79086 16 12 16ZM15 12C15 11.4477 14.5523 11 14 11H13V10C13 9.44772 12.5523 9 12 9C11.4477 9 11 9.44772 11 10V11C11 12.1 11.9 13 13 13H14C14.5523 13 15 12.5523 15 12Z" fill="black"/>
</svg>
