<svg width="24" height="24" viewBox="0 0 24 24" fill="none" xmlns="http://www.w3.org/2000/svg">
<path fill-rule="evenodd" clip-rule="evenodd" d="M12 3C13.6569 3 15 4.34315 15 6C15 7.65685 13.6569 9 12 9H5C4.44772 9 4 8.55228 4 8C4 7.44771 4.44772 7 5 7H12C12.5523 7 13 6.55228 13 6C13 5.44772 12.5523 5 12 5C11.4477 5 11 4.55229 11 4C11 3.44771 11.4477 3 12 3ZM19 11H8C7.44772 11 7 11.4477 7 12C7 12.5523 7.44772 13 8 13H19C19.5523 13 20 12.5523 20 12C20 11.4477 19.5523 11 19 11ZM17 18C17 19.6569 15.6569 21 14 21C13.4477 21 13 20.5523 13 20C13 19.4477 13.4477 19 14 19C14.5523 19 15 18.5523 15 18C15 17.4477 14.5523 17 14 17H7C6.44772 17 6 16.5523 6 16C6 15.4477 6.44772 15 7 15H14C15.6569 15 17 16.3431 17 18Z" fill="black"/>
</svg>
