<svg width="24" height="24" viewBox="0 0 24 24" fill="none" xmlns="http://www.w3.org/2000/svg">
<path fill-rule="evenodd" clip-rule="evenodd" d="M12 2C6.48599 2 2 6.48576 2 11.9998C2 17.5142 6.48599 22 12 22C17.514 22 22.0005 17.5142 22.0005 11.9998C22.0005 6.48576 17.514 2 12 2ZM12 21.5416C6.73882 21.5416 2.45862 17.2609 2.45862 11.9998C2.45862 6.73882 6.73882 2.45838 12 2.45838C17.2612 2.45838 21.5416 6.73882 21.5416 11.9998C21.5416 17.2609 17.2612 21.5416 12 21.5416ZM3.42158 11.9997C3.42158 15.3954 5.39458 18.33 8.25659 19.7202L4.1643 8.50855C3.68828 9.57537 3.42158 10.756 3.42158 11.9997ZM17.7913 11.5671C17.7913 10.5066 17.4103 9.77262 17.0838 9.20111C16.6492 8.49437 16.2412 7.89628 16.2412 7.18907C16.2412 6.40071 16.8392 5.66669 17.6817 5.66669C17.7198 5.66669 17.756 5.67139 17.7929 5.67351C16.2668 4.27531 14.2334 3.42134 12 3.42134C9.00299 3.42134 6.36628 4.95901 4.83238 7.28785C5.03394 7.29443 5.2235 7.2982 5.3846 7.2982C6.28162 7.2982 7.67088 7.18907 7.67088 7.18907C8.13326 7.16226 8.18782 7.84148 7.72591 7.89628C7.72591 7.89628 7.26094 7.95061 6.744 7.97766L9.86778 17.2702L11.7453 11.6398L10.4089 7.97766C9.9468 7.95061 9.50911 7.89628 9.50911 7.89628C9.04673 7.86876 9.10106 7.16226 9.56368 7.18907C9.56368 7.18907 10.98 7.2982 11.8229 7.2982C12.7199 7.2982 14.1094 7.18907 14.1094 7.18907C14.572 7.16226 14.6264 7.84148 14.164 7.89628C14.164 7.89628 13.6988 7.95061 13.1823 7.97766L16.2826 17.1992L17.1386 14.3405C17.5088 13.1532 17.7913 12.3014 17.7913 11.5671ZM12.1507 12.7503L9.57652 20.2293C10.3454 20.4555 11.1579 20.5788 11.9999 20.5788C12.999 20.5788 13.9571 20.4064 14.849 20.0926C14.8259 20.0557 14.8048 20.0167 14.7874 19.9743L12.1507 12.7503ZM19.5279 7.88424C19.5646 8.15753 19.5855 8.45058 19.5855 8.76643C19.5855 9.63663 19.4225 10.615 18.9331 11.8389L16.3128 19.4146C18.8632 17.9277 20.5785 15.1648 20.5785 11.9998C20.5785 10.5082 20.1975 9.10605 19.5279 7.88424Z" fill="black"/>
</svg>
