<svg width="24" height="24" viewBox="0 0 24 24" fill="none" xmlns="http://www.w3.org/2000/svg">
<path fill-rule="evenodd" clip-rule="evenodd" d="M19.8892 7.68642C20.591 8.96695 20.9904 10.4365 20.9904 11.9996C20.9904 15.3165 19.1928 18.2124 16.5199 19.7708L19.2659 11.8312C19.7788 10.5485 19.9496 9.52292 19.9496 8.61097C19.9496 8.27997 19.9278 7.97277 19.8892 7.68642ZM13.2389 7.78431C13.7801 7.75584 14.2679 7.69891 14.2679 7.69891C14.7523 7.64156 14.6952 6.9296 14.2105 6.95796C14.2105 6.95796 12.7542 7.07225 11.8141 7.07225C10.9307 7.07225 9.44631 6.95796 9.44631 6.95796C8.96144 6.9296 8.90462 7.67023 9.38927 7.69891C9.38927 7.69891 9.8479 7.75584 10.3323 7.78431L11.733 11.6223L9.76514 17.5231L6.4913 7.78431C7.03299 7.75584 7.52018 7.69891 7.52018 7.69891C8.00431 7.64156 7.94716 6.9296 7.46272 6.95796C7.46272 6.95796 6.00675 7.07225 5.06654 7.07225C4.89787 7.07225 4.69903 7.06812 4.48792 7.06135C6.09553 4.62073 8.85869 3.00899 11.9998 3.00899C14.3404 3.00899 16.4716 3.90391 18.071 5.36951C18.0323 5.36718 17.9945 5.36231 17.9546 5.36231C17.0715 5.36231 16.4448 6.13162 16.4448 6.95796C16.4448 7.69891 16.8723 8.32579 17.328 9.06663C17.6699 9.66546 18.0692 10.4347 18.0692 11.5462C18.0692 12.3156 17.7732 13.2086 17.3851 14.4526L16.4881 17.4489L13.2389 7.78431ZM11.9998 20.991C11.1173 20.991 10.2656 20.8616 9.45985 20.6247L12.1577 12.7861L14.9211 20.3574C14.9393 20.4018 14.9616 20.4428 14.9854 20.4813C14.0509 20.8103 13.0468 20.991 11.9998 20.991ZM3.0092 11.9996C3.0092 10.6961 3.28878 9.4588 3.78772 8.34071L8.07648 20.0911C5.07702 18.634 3.0092 15.5583 3.0092 11.9996ZM11.9998 2C6.4859 2 2 6.4858 2 11.9996C2 17.5137 6.4859 22 11.9998 22C17.5137 22 21.9998 17.5137 21.9998 11.9996C21.9998 6.4858 17.5137 2 11.9998 2Z" fill="black"/>
</svg>
