<svg width="24" height="24" viewBox="0 0 24 24" fill="none" xmlns="http://www.w3.org/2000/svg">
<path fill-rule="evenodd" clip-rule="evenodd" d="M13 21V17.8293C14.1652 17.4175 15 16.3062 15 15C15 13.9565 14.4672 13.0375 13.6589 12.5C14.4672 11.9625 15 11.0435 15 10C15 8.95651 14.4672 8.03746 13.6589 7.5C14.4672 6.96254 15 6.04349 15 5C15 3.34315 13.6569 2 12 2C10.3431 2 9 3.34315 9 5C9 6.04349 9.53275 6.96254 10.3411 7.5C9.53275 8.03746 9 8.95651 9 10C9 11.0435 9.53275 11.9625 10.3411 12.5C9.53275 13.0375 9 13.9565 9 15C9 16.3062 9.83481 17.4175 11 17.8293V21C11 21.5523 11.4477 22 12 22C12.5523 22 13 21.5523 13 21ZM13 5C13 5.55228 12.5523 6 12 6C11.4477 6 11 5.55228 11 5C11 4.44772 11.4477 4 12 4C12.5523 4 13 4.44772 13 5ZM12 11C12.5523 11 13 10.5523 13 10C13 9.44772 12.5523 9 12 9C11.4477 9 11 9.44772 11 10C11 10.5523 11.4477 11 12 11ZM13 15C13 15.5523 12.5523 16 12 16C11.4477 16 11 15.5523 11 15C11 14.4477 11.4477 14 12 14C12.5523 14 13 14.4477 13 15Z" fill="black"/>
</svg>
