<svg width="24" height="24" viewBox="0 0 24 24" fill="none" xmlns="http://www.w3.org/2000/svg">
<path fill-rule="evenodd" clip-rule="evenodd" d="M9.93524 14.6276L9.93432 9.00811L15.3384 11.8276L9.93524 14.6276ZM21.8003 8.03461C21.8003 8.03461 21.6048 6.65639 21.0052 6.04947C20.2447 5.25288 19.3922 5.24894 19.0013 5.2023C16.2026 5 12.0043 5 12.0043 5H11.9956C11.9956 5 7.79753 5 4.99872 5.2023C4.60777 5.24894 3.7556 5.25288 2.9948 6.04947C2.39514 6.65639 2.20001 8.03461 2.20001 8.03461C2.20001 8.03461 2 9.65308 2 11.2716V12.7889C2 14.4073 2.20001 16.0258 2.20001 16.0258C2.20001 16.0258 2.39514 17.404 2.9948 18.0109C3.7556 18.8075 4.75497 18.7823 5.20008 18.8658C6.8001 19.0193 12 19.0667 12 19.0667C12 19.0667 16.2026 19.0604 19.0013 18.8581C19.3922 18.8115 20.2447 18.8075 21.0052 18.0109C21.6048 17.404 21.8003 16.0258 21.8003 16.0258C21.8003 16.0258 22 14.4073 22 12.7889V11.2716C22 9.65308 21.8003 8.03461 21.8003 8.03461Z" fill="black"/>
</svg>
